<svg width="220" height="250" viewBox="0 0 220 250" fill="none" xmlns="http://www.w3.org/2000/svg">
<rect x="20" y="20" width="150" height="180" fill="#2E74FF"/>
<rect x="70" y="110" width="129" height="120" fill="#00002B"/>
<rect x="10" y="10" width="200" height="230" stroke="white" stroke-width="20"/>
<rect x="60" y="99" width="100" height="60" fill="white"/>
<path d="M113 139H143V135.667H113V139ZM113 130.667H143V127.333H113V130.667ZM113 119V122.333H143V119H113Z" fill="#00002B"/>
<path d="M91.0007 112.333C81.8007 112.333 74.334 119.8 74.334 129C74.334 138.2 81.8007 145.667 91.0007 145.667C100.201 145.667 107.667 138.2 107.667 129C107.667 119.8 100.201 112.333 91.0007 112.333ZM91.0007 117.333C93.7673 117.333 96.0007 119.567 96.0007 122.333C96.0007 125.1 93.7673 127.333 91.0007 127.333C88.234 127.333 86.0007 125.1 86.0007 122.333C86.0007 119.567 88.234 117.333 91.0007 117.333ZM91.0007 141C86.834 141 83.1507 138.867 81.0007 135.633C81.0507 132.317 87.6673 130.5 91.0007 130.5C94.3173 130.5 100.951 132.317 101.001 135.633C98.8507 138.867 95.1673 141 91.0007 141Z" fill="#00002B"/>
<rect y="200" width="110" height="50" fill="white"/>
<rect x="57" y="222" width="16" height="16" fill="#00002B"/>
<rect x="220" width="110" height="50" transform="rotate(90 220 0)" fill="white"/>
<rect x="187" y="78" width="15" height="15" fill="#2E74FF"/>
</svg>
