<svg width="175" height="40" viewBox="0 0 175 40" fill="none" xmlns="http://www.w3.org/2000/svg">
<path d="M175 0H0V40H175V0Z" fill="#00002B"/>
<path d="M57.2 18.2L54.4 23.2H51.6L48.8 18.2V26H45.2V12H49L53 19.4L57 12H60.8V26H57.2V18.2ZM65.8578 26H61.9578L67.2578 12H71.2578L76.5578 26H72.6578L71.7578 23.5H66.7578L65.8578 26ZM67.6578 20.9H70.8578L69.2578 16.2L67.6578 20.9ZM77.707 12H86.107C87.507 12 88.5204 12.32 89.147 12.96C89.787 13.5867 90.107 14.6 90.107 16V17.8C90.107 18.9067 89.9204 19.7667 89.547 20.38C89.187 20.9933 88.607 21.4 87.807 21.6L90.307 26H86.407L84.107 21.8H81.307V26H77.707V12ZM86.507 16C86.507 15.2 86.107 14.8 85.307 14.8H81.307V19H85.307C86.107 19 86.507 18.6 86.507 17.8V16ZM92.2516 12H100.652C102.052 12 103.065 12.32 103.692 12.96C104.332 13.5867 104.652 14.6 104.652 16V18C104.652 19.4 104.332 20.42 103.692 21.06C103.065 21.6867 102.052 22 100.652 22H95.8516V26H92.2516V12ZM101.052 16C101.052 15.2 100.652 14.8 99.8516 14.8H95.8516V19.2H99.8516C100.652 19.2 101.052 18.8 101.052 18V16ZM107.909 26H104.009L109.309 12H113.309L118.609 26H114.709L113.809 23.5H108.809L107.909 26ZM109.709 20.9H112.909L111.309 16.2L109.709 20.9ZM123.359 23.2H130.659V26H119.759V12H123.359V23.2Z" fill="white"/>
</svg>
