<svg width="178" height="176" viewBox="0 0 178 176" fill="none" xmlns="http://www.w3.org/2000/svg">
<g opacity="0.1" clip-path="url(#clip0_614_20879)">
<path d="M31.3906 62.24L63.5701 118.734L126.209 99.1159L31.3906 62.24Z" fill="white"/>
<path d="M59.7806 128.198L24.3789 66.0476L0.417737 125.921L104.731 166.489L128.692 106.616L59.7806 128.198Z" fill="white"/>
<path d="M125.592 29.7348L60.4041 48.8318L72.3794 69.7043L136.789 94.7537L159.995 87.5636L125.592 29.7348Z" fill="white"/>
<path d="M55.0176 55.4709L52.4266 61.9452L60.5432 65.1018L55.0176 55.4709Z" fill="white"/>
<path d="M139.018 102.333L138.407 103.86L120.073 149.672L135.472 155.661L159.332 96.0392L139.018 102.333Z" fill="white"/>
</g>
<defs>
<clipPath id="clip0_614_20879">
<rect width="136.441" height="135.022" fill="white" transform="matrix(0.931998 0.362463 -0.37155 0.928413 50.5859 0.564209)"/>
</clipPath>
</defs>
</svg>
