<svg xmlns="http://www.w3.org/2000/svg" viewBox="0 0 732.55 729.46"><defs><style>.cls-1,.cls-21,.cls-3,.cls-4,.cls-43,.cls-44,.cls-46,.cls-48,.cls-5,.cls-68,.cls-76,.cls-81,.cls-82,.cls-95{fill:none;}.cls-1,.cls-5{stroke:#fff;}.cls-1,.cls-3,.cls-39,.cls-4,.cls-42,.cls-43,.cls-44,.cls-46,.cls-48,.cls-5,.cls-51,.cls-68,.cls-72,.cls-75,.cls-76,.cls-77,.cls-81,.cls-82,.cls-95,.cls-96,.cls-97{stroke-miterlimit:10;}.cls-1{stroke-width:10px;}.cls-2,.cls-89,.cls-91{fill:#fff;}.cls-3,.cls-39{stroke:#2e74ff;stroke-width:15px;}.cls-4{stroke:#00002b;stroke-width:20px;}.cls-5{stroke-width:5px;}.cls-6{fill:#15154f;}.cls-7{fill:#00002b;}.cls-8{fill:#848483;}.cls-9{fill:#2b2b2b;}.cls-10{fill:#1d2329;}.cls-11{fill:#0f0f0f;}.cls-12{fill:#696969;}.cls-13,.cls-16{fill:#a25d1d;}.cls-14{fill:#333;}.cls-15{fill:#2f2c29;}.cls-16,.cls-34,.cls-36{opacity:0.5;}.cls-16,.cls-23,.cls-24,.cls-34,.cls-36{isolation:isolate;}.cls-17{fill:#5c5c5c;}.cls-18{fill:#303030;}.cls-19{fill:#262626;}.cls-20,.cls-42{fill:#2e74ff;}.cls-22{fill:#4b4b4b;}.cls-23{fill:#00b6e8;}.cls-23,.cls-24{opacity:0.3;}.cls-24{fill:#a8ebe8;}.cls-25{fill:#505050;}.cls-26{fill:#474646;}.cls-27{fill:#5a5a5a;}.cls-28{fill:#242421;}.cls-29{fill:#3f3f3f;}.cls-30{fill:#4c4c4c;}.cls-31{fill:#010200;}.cls-32{fill:#2c2c2b;}.cls-33{fill:#3e3e3c;}.cls-34{fill:#515151;}.cls-35{fill:#323231;}.cls-36{fill:#272724;}.cls-37{fill:#5e5e5e;}.cls-38{fill:#3a3b39;}.cls-39{fill:#000030;}.cls-40{fill:#2377db;}.cls-41,.cls-96{fill:#353535;}.cls-42,.cls-46,.cls-48,.cls-72{stroke:#000;}.cls-42,.cls-46,.cls-51{stroke-width:0.5px;}.cls-43{stroke:#212121;}.cls-44{stroke:#565656;stroke-width:2px;}.cls-45{fill:#3a84fc;}.cls-47{fill:#2d2d2d;}.cls-48,.cls-72,.cls-81{stroke-width:0.3px;}.cls-49{fill:#1e1e1e;}.cls-50{fill:#2766cc;}.cls-51{fill:#3a3a3a;}.cls-51,.cls-68,.cls-97{stroke:#282828;}.cls-52{fill:#777;}.cls-53{fill:#141414;}.cls-54{fill:#535454;}.cls-55{fill:#1055c4;}.cls-56{fill:#1766e5;}.cls-57{fill:#1866d6;}.cls-58{fill:#0b4599;}.cls-59{fill:#282828;}.cls-60{fill:#383838;}.cls-61{fill:#bfbfbf;}.cls-62{fill:#246de2;}.cls-63{fill:#828282;}.cls-64{fill:#9e9e9e;}.cls-65{fill:#c1c1c1;}.cls-66{fill:#b5b5b5;}.cls-67{fill:#155fb7;}.cls-69{fill:#7f7f7f;}.cls-70{fill:#8e8f91;}.cls-71{fill:#146dc6;}.cls-72{fill:#efe300;}.cls-73{fill:#094893;}.cls-74{fill:#0e5bc9;}.cls-75,.cls-83{fill:#c9c9c9;}.cls-75{stroke:#b7b7b7;}.cls-76{stroke:#9b9b9b;}.cls-77,.cls-80{fill:#1a68e5;}.cls-77{stroke:#051d3f;stroke-width:0.2px;}.cls-78{fill:#424242;}.cls-79{fill:#494949;}.cls-81{stroke:#04255b;}.cls-82{stroke:#aaa;}.cls-84{fill:#444;}.cls-85{fill:#bababa;}.cls-86{fill:#2870e5;}.cls-87{fill:#9b9b9b;}.cls-88{fill:#4f4f4f;}.cls-89{font-size:140px;}.cls-89,.cls-91{font-family:RussoOne-Regular, Russo One;}.cls-90{letter-spacing:-0.06em;}.cls-91{font-size:50px;}.cls-92{letter-spacing:-0.05em;}.cls-93{fill:#707070;}.cls-94{fill:#565656;}.cls-95,.cls-96{stroke:#3f3f3f;}.cls-97{fill:#999;}</style></defs><g id="Layer_2" data-name="Layer 2"><g id="Layer_2-2" data-name="Layer 2"><g id="Layer_2-3" data-name="Layer 2"><g id="Layer_1-2" data-name="Layer 1-2"><path class="cls-1" d="M369.81,724.45c-15.86,0-33.27-2.12-44.34-5.41-60.73-18-212-68.42-241.24-81C68.42,631.4,42.34,610.46,42,572.63c-.2-23.2-1.29-314.72.37-416.88.16-9.44,3.46-19.61,4.47-22.5C53.36,114.56,69.07,100,80.92,94.32,139.12,66.57,312.64,16.57,327,12.44A148.31,148.31,0,0,1,372.24,5a111.87,111.87,0,0,1,34.22,5.13c34.15,11,68.21,22.63,101.14,33.9C540.25,55.18,574,66.7,607.46,77.49l.51.16.52.18c1.06.38,26.12,9.25,43.89,16.34,28.79,11.5,41.7,39,41.72,61.22.14,41.56,1.28,403.68.34,423.33-1.52,32.25-26.43,53.39-47.3,61.7l-.69.27-.7.25c-7.28,2.57-179,63.15-243.3,79.83A130.94,130.94,0,0,1,369.81,724.45Z"/><polyline class="cls-2" points="63.29 397.96 72.92 117.3 390.73 20.99 665.89 124.17 667.27 396.58 63.29 397.96"/><path class="cls-3" d="M369.81,713.45c-14.66,0-31.22-2-41.22-5-60.53-18-211.21-68.15-240-80.58C75.3,622.39,53.29,604.7,53,572.54c-.2-23.2-1.29-314.58.37-416.61.14-8.17,3.48-18,3.86-19.06,5.23-15,18.26-27.78,28.42-32.62C143.32,76.76,317.33,26.66,330.25,23a137.53,137.53,0,0,1,42-7,100.83,100.83,0,0,1,30.85,4.6c34,11,68.06,22.59,101,33.84,32.66,11.17,66.43,22.72,100,33.52l.37.12.36.12c1,.38,25.91,9.18,43.48,16.19,27.47,11,34.8,37.25,34.8,51.06.14,41.15,1.28,403.36.35,422.74-1.68,35.6-36.42,50.43-40.37,52l-.5.19-.49.18c-7.27,2.56-178.59,63-242.4,79.55A119.84,119.84,0,0,1,369.81,713.45Z"/><path class="cls-4" d="M369.81,696.45c-15.14,0-29.48-2.2-36.39-4.25-63.89-19-213.14-69-238.35-80-2.71-1.15-24.81-11.5-25.07-39.82-.28-31.68-1.2-319.92.37-416.17.08-4.65,2.12-11.5,2.91-13.74,3.85-11,14-20.18,19.69-22.88,56.95-27.14,232.34-77.53,242.27-80.38a120.3,120.3,0,0,1,37-6.21,84.17,84.17,0,0,1,25.65,3.79c33.9,10.9,67.83,22.51,100.65,33.73s66.58,22.77,100.31,33.62l.27.09c1,.37,25.59,9.06,42.85,16,19,7.59,24.1,25.74,24.1,35.27.06,16.4,1.29,402.64.37,421.93-1.2,25.4-28.51,36.56-29.68,37l-.18.07-.18.07c-7.24,2.55-177.89,62.74-241,79.13A104,104,0,0,1,369.81,696.45Z"/><path class="cls-5" d="M80,572.29c-.24-27.35-1.25-317,.37-415.92,0-2.72,1.46-8,2.35-10.61,2.93-8.41,11.15-15.52,14.55-17.14,57.28-27.3,240.92-79.85,240.92-79.85C356,42.89,377,40.58,394.85,46.31c67.64,21.75,133.34,45.6,201,67.35,0,0,25.2,8.91,42.47,15.8,17.81,7.11,17.81,26,17.81,26s1.3,402.19.38,421.45-23.38,28.21-23.38,28.21S456.37,667.53,392.93,684c-18.68,4.85-46.81,1.53-56.63-1.38-62.64-18.57-211.53-68.41-237.21-79.57C99.06,603,80.21,595.43,80,572.29Z"/><path class="cls-6" d="M657.71,304.4c-16.69-6.93-35.56-9.55-65-6-30.19,3.61-41.13,14.3-74.53,17.2-34.16,7.34-56.4,9.17-89.19,4.59-33.1-.81-71,37.74-131.47,44.58-70.39,8-148,24.76-218.68,20.48L77,573.21,374,686,656.3,585C655,488.45,658.9,401,657.71,304.4Z"/><path class="cls-7" d="M74.62,601.92,347,696.79l92.87-14.45,219.89-81.25,11.93-35-3.8-262.25s-10.52,3.47-13.61,2.74c-50.21-8.25-78-.17-101.12,8.94-13.51,5.34-39,6.16-64.7,10-27.86,4.19-47.91,4.09-56.37,2.81-47.15-7.14-59.36,43.35-138.4,47.28l-219.11,21Z"/><polygon class="cls-2" points="694.66 370.21 732.55 370.2 732.55 563.44 694.09 583.02 694.66 370.21"/><polygon class="cls-2" points="41.47 370.2 0 370.2 0 563.44 42.77 583.02 41.47 370.2"/><path class="cls-5" d="M394.4,51.26"/><path class="cls-5" d="M651.9,555.87l-.34,20.38c-.9,19.07-23,27.9-23,27.9s-173.74,61.75-236.09,78c-18.36,4.8-46,1.52-55.67-1.36-61.57-18.37-207.91-67.68-233.16-78.72,0,0-18.51-7.5-18.72-30.37V549.91"/><path class="cls-8" d="M215.34,187.5H217s1.14.81-.09,1.87H215.5Z"/><rect class="cls-9" x="129.1" y="314.19" width="167.85" height="24.32"/><rect class="cls-10" x="129.11" y="323.23" width="167.84" height="15.28"/><polygon class="cls-11" points="306.03 274.23 292.15 289.23 300.56 286.04 306.03 274.23"/><polygon class="cls-12" points="308.89 291.74 229.52 291.74 229.52 297.73 302.66 297.73 308.89 291.74"/><path class="cls-13" d="M316.56,272c.09-1.61.2-3.22.3-4.83a101.9,101.9,0,0,0-.61,18.56l.2-.1c0-.68-.07-1.33-.1-2Q316.23,277.76,316.56,272Z"/><path class="cls-14" d="M314.52,262.26l-.46-14.92-2.27-10.64-10.21.65-11.77,15.28s-1,38.25,0,40.72,11.56-7.09,11.56-7.09l11.24.23C311.78,276.17,314.52,274,314.52,262.26Z"/><polygon class="cls-15" points="300.56 286.04 284.72 286.05 287.85 289.12 300.16 289.27 300.56 286.04"/><path class="cls-16" d="M316.56,272c.09-1.61.2-3.22.3-4.83-.33,2.89-.57,5.8-.71,8.7l.12.47a.29.29,0,0,1-.13,0,80.83,80.83,0,0,0,.11,9.34l.2-.1c0-.68-.07-1.33-.1-2Q316.23,277.76,316.56,272Z"/><path class="cls-17" d="M270.46,273.94l-5.73-4.7s-10.09-7.06,4.36-4.67c0,0,4.73.84,6,7.34.31,1.6.69,4.18,1,7.11Z"/><path class="cls-12" d="M267.27,266.53s4.11.78,5.24,6.42"/><path class="cls-12" d="M266.64,267.82c-11.07-1.84-7.14-1.29-10.9-1.59l-.18-1.34s-.9-.4,11.67,1.64c0,0,4.11.78,5.24,6.42s.4,2.71.4,2.71h-.67c-.37-3.83.67,3.22-.27-1.47C270.75,268.56,266.64,267.82,266.64,267.82Z"/><path class="cls-18" d="M266.93,255.4s11,.71,11.42,4.9-3.79,4.79-8.24,4.58l-34.34-4a4.06,4.06,0,0,1-3.14-2.71c-.86-2.45-5-25-6.17-36.16,0,0-.29-6.31,3.6-6.47a9.21,9.21,0,0,1,9,6.77c1.42,4.48,4.16,27.8-.31,33,0,0,2.39-1.79,11.35-1.29C256.6,254.32,266.93,255.4,266.93,255.4Z"/><path class="cls-11" d="M230.06,215.5a8.51,8.51,0,0,1,4.6,1.14h-.32c-1.88-.07-4.4,1.1-4.34,3.34a15,15,0,0,0,1.14,4.46,42.41,42.41,0,0,1,1.61,6.27,99.45,99.45,0,0,1,1,13.57c0,2.13-.13,4.8,1.68,6.31,1.3,1.1,3.67.28,4.62-.92a5.82,5.82,0,0,0,.92-1.51c-.33,3.16-1,5.77-2.18,7.13,0,0,1.32-1,5.73-1.31.91,1.78,1.32,3.78,3.31,4.68,2.46,1.13,5.85,1.22,8.49,1.63,4,.64,8,1.17,12,1.67,3.16.41,6.36.58,9.55.82-1.19,2-4.44,2.33-7.79,2.14l-34.34-4a4.06,4.06,0,0,1-3.14-2.71c-.86-2.45-5-24.95-6.17-36.16C226.46,222,226.17,215.7,230.06,215.5Z"/><path class="cls-19" d="M229.52,260.3s4.41-7.92,10.7-8.06,3.6,9.54,3.6,9.54Z"/><path class="cls-18" d="M233.79,217.05s3.26.28,5.06,7.42S241,246.7,240,248.57C240,248.57,239.48,224.33,233.79,217.05Z"/><path d="M236.77,257.37a1.9,1.9,0,1,0,1.9-1.9h0a1.89,1.89,0,0,0-1.89,1.89Z"/><path class="cls-19" d="M237.63,257.37a1,1,0,1,0,1-1A1,1,0,0,0,237.63,257.37Z"/><path class="cls-18" d="M277.9,261.23s.62-4-10.43-5.43c0,0-18.13-1.79-19.94-1.52,0,0,20.54,1.88,24.47,3.09A12.4,12.4,0,0,1,277.9,261.23Z"/><path class="cls-20" d="M317.28,301.34l.22-57.93s-15.07-62.66-17.41-69.66-7.84-5.83-7.84-5.83H227.19c-10.31,1-11,10.86-11,10.86l-14.5,138.53H305.55C309.54,312.05,313.36,306.7,317.28,301.34Zm-99.9-74.44c.21-6.13,3.6-35.52,3.6-35.52s.68-7.95,7.32-8c7.4-.13,23.13,0,23.13,0s8.65-1.77,8.65,11.23v56.73s.32,6-7.53,6.17h0m61-14.93V284s0,4.44-4.37,4.88l-21.63-.15S266,274.22,265.76,268.44l-.61-80.65s-.65-4.44,7.85-4.44h18.51a6.55,6.55,0,0,1,7,4.51c2,5.28,15,54.72,15,54.72Z"/><path class="cls-21" d="M252.55,257.51l-9.1-7.37s-26-15.12-25.76-21.25S221,191.38,221,191.38s.68-7.95,7.32-8c7.4-.13,23.13,0,23.13,0s8.65-1.77,8.65,11.23v56.73S260.4,257.37,252.55,257.51Z"/><path class="cls-22" d="M284,295.46H317.3l.2-52.07s-15.07-62.66-17.41-69.66-7.84-5.83-7.84-5.83H227.19c-10.31,1-11,10.86-11,10.86L210.08,237Zm16.19-6.19-11-.08s-23.17-16-23.39-21.78l-.61-79.62s-.62-4.44,7.85-4.44h18.51a6.55,6.55,0,0,1,7,4.51c2,5.28,15,54.72,15,54.72L313.38,279l-10.47,0Zm-82.47-60.38L221,191.38s.68-7.95,7.32-8c7.4-.13,23.13,0,23.13,0s8.65-1.77,8.65,11.23v56.73s.35,6-7.5,6.17h0"/><path class="cls-23" d="M265.28,266.72l-.75-77.4a4.57,4.57,0,0,1,1.12-3.22c1.48-1.72,4.19-2.58,8-2.58h18.41a3.22,3.22,0,0,1,.76,0,7.75,7.75,0,0,1,7.52,5.4c2,5.29,14.52,52.84,15.07,54.85v.16l-1.72,35.52c0,1.54-7.6-1.88-10.63-.06-3.24,1.94-1.72,8.81-3.36,9l-8.71.32C286.86,288.65,265.48,271.67,265.28,266.72Z"/><path class="cls-23" d="M216.77,226.67c.2-6.09,2.68-33.2,2.92-35.35.27-3.18,2.39-9.18,8.58-9.27,2.71-.07,6.8-.08,12.19-.08h10.89a5.71,5.71,0,0,1,1.09-.07c2.11,0,9,.89,9,12.63v56.66a7.44,7.44,0,0,1-1.92,5c-1.56,1.65-3.88,2.52-6.93,2.57"/><path class="cls-24" d="M255,191c-5.21-4.06-10.53-5.15-15.88-9h9c1,.78,2,1.55,3,2.3,3.38,2.55,6.78,5.08,10.19,7.63a26.32,26.32,0,0,1,.13,2.66V199C259.27,197.22,257.14,192.7,255,191Z"/><path class="cls-24" d="M249.46,182h1.89a5.71,5.71,0,0,1,1.09-.07c1.84,0,7.33.69,8.67,8.76Q255.28,186.36,249.46,182Z"/><path class="cls-11" d="M263.78,269.26l.05-81.41a4.53,4.53,0,0,1,1.12-3.22c1.48-1.72,4.19-2.58,8-2.58h18.41a4.82,4.82,0,0,1,.76,0,7.76,7.76,0,0,1,7.52,5.4c2,5.29,14.52,52.84,15.07,54.85v.16l.14,37.92-11-.17-3.16,9.86L287.85,290Zm48.88,8.87-.48-35.36c-.84-3.16-13.09-49.42-14.94-54.44a5.17,5.17,0,0,0-5.08-3.7H273c-3.75,0-5.34.89-6,1.62a1.9,1.9,0,0,0-.55,1.33h0l.69,81.22,22.13,18.81,9.53.14,3.42-9.77Z"/><path class="cls-11" d="M216.18,228.69c.2-6.09,3.27-35.22,3.51-37.37.27-3.18,2.39-9.18,8.58-9.27,2.71-.07,6.8-.08,12.19-.08h10.89a5.71,5.71,0,0,1,1.09-.07c2.11,0,9,.89,9,12.63v56.66a7.44,7.44,0,0,1-1.92,5c-1.56,1.65-3.88,2.52-6.93,2.57h-1.2m1.15-2.55a7,7,0,0,0,5-1.73,4.81,4.81,0,0,0,1.24-3.19V194.55c0-8.72-4-10-6.35-10a6.26,6.26,0,0,0-.75,0H240.42c-5.36,0-9.45,0-12.15.07-5.36.09-6,6.6-6,6.87-.07.53-3.23,30.09-3.52,36.1"/><path class="cls-18" d="M299.5,179.57,297.63,174s-1-4.92-7-5.21H229.4s-8.26.08-10.61,7l-.87,3.34Z"/><path class="cls-19" d="M298.71,179.1,296.32,173s-1.2-3.66-9.15-3.66H232.3l52.16,1.39S295.12,169.31,298.71,179.1Z"/><path class="cls-25" d="M135.56,327.52H350.78a38.91,38.91,0,0,1,0,77.81H135.56a38.91,38.91,0,0,1,0-77.81Z"/><path class="cls-26" d="M137.37,332.92H348.12a32.53,32.53,0,0,1,0,65H137.37a32.53,32.53,0,0,1,0-65Z"/><path class="cls-22" d="M143.68,339.77h200c17,0,30.75,11.74,30.75,26.22s-13.76,26.23-30.75,26.23h-200c-17,0-30.74-11.76-30.74-26.23S126.71,339.77,143.68,339.77Z"/><path class="cls-10" d="M169,353.58c-1.13-3.73-2.25-7.48-3.37-11.22h159q-2.86,5.64-5.8,11.22Z"/><path class="cls-27" d="M321.84,366.13a26.28,26.28,0,1,0,26.28-26.36,26.27,26.27,0,0,0-26.28,26.36Z"/><path class="cls-28" d="M284.47,384.3a13,13,0,1,0,0-.08Z"/><path class="cls-22" d="M289.61,384.3a7.88,7.88,0,1,0,7.88-7.92A7.88,7.88,0,0,0,289.61,384.3Z"/><path class="cls-29" d="M291.73,384.3a5.77,5.77,0,1,0,5.76-5.81,5.77,5.77,0,0,0-5.76,5.81Z"/><path class="cls-28" d="M256.19,384.3a13,13,0,1,0,0-.08Z"/><path class="cls-22" d="M261.3,384.3a7.89,7.89,0,1,0,7.88-7.92A7.89,7.89,0,0,0,261.3,384.3Z"/><path class="cls-29" d="M263.44,384.3a5.77,5.77,0,1,0,5.74-5.81,5.77,5.77,0,0,0-5.74,5.81Z"/><path class="cls-28" d="M227.89,384.3a13,13,0,1,0,0-.08Z"/><path class="cls-22" d="M233,384.3a7.89,7.89,0,1,0,7.88-7.92A7.89,7.89,0,0,0,233,384.3Z"/><path class="cls-29" d="M235.14,384.3a5.77,5.77,0,1,0,5.76-5.81,5.77,5.77,0,0,0-5.76,5.81Z"/><path class="cls-28" d="M171.31,384.3a13,13,0,1,0,0-.08Z"/><path class="cls-22" d="M176.44,384.3a7.88,7.88,0,1,0,7.88-7.92,7.88,7.88,0,0,0-7.88,7.92Z"/><path class="cls-29" d="M178.56,384.3a5.77,5.77,0,1,0,5.76-5.81,5.77,5.77,0,0,0-5.76,5.81Z"/><path class="cls-28" d="M199.61,384.3a13,13,0,1,0,0-.08Z"/><path class="cls-22" d="M204.74,384.3a7.88,7.88,0,1,0,7.87-7.92A7.88,7.88,0,0,0,204.74,384.3Z"/><path class="cls-29" d="M206.86,384.3a5.77,5.77,0,1,0,5.75-5.81,5.77,5.77,0,0,0-5.75,5.81Z"/><path class="cls-29" d="M285.41,379.48a13,13,0,0,1,24.16,0Z"/><path class="cls-29" d="M257.14,379.48a12.94,12.94,0,0,1,24.13,0Z"/><path class="cls-29" d="M228.85,379.48a12.93,12.93,0,0,1,24.12,0Z"/><path class="cls-29" d="M172.27,379.48a12.93,12.93,0,0,1,24.12,0Z"/><path class="cls-29" d="M200.54,379.48a13,13,0,0,1,24.15,0Z"/><path class="cls-28" d="M330.1,366.13a18,18,0,1,0,18-18.1A18,18,0,0,0,330.1,366.13Z"/><path class="cls-30" d="M336.31,365.7a11.82,11.82,0,1,0,11.81-11.85,11.82,11.82,0,0,0-11.81,11.85Z"/><path class="cls-30" d="M347,350.52a1.09,1.09,0,1,0,1.14-1.14A1.16,1.16,0,0,0,347,350.52Z"/><path class="cls-30" d="M347,380.86a1.13,1.13,0,0,0,2.26,0h0a1.13,1.13,0,0,0-2.26,0Z"/><path class="cls-30" d="M333,366.86a1.14,1.14,0,1,0-1.14-1.14A1.14,1.14,0,0,0,333,366.86Z"/><path class="cls-30" d="M363.24,366.8a1.12,1.12,0,0,0,1.12-1.14,1.13,1.13,0,0,0-2.26,0v0a1.12,1.12,0,0,0,1.14,1.1Z"/><path class="cls-30" d="M336.61,355.78a1.12,1.12,0,0,0,1.59-1.59,1.11,1.11,0,0,0-1.58,0h0A1.14,1.14,0,0,0,336.61,355.78Z"/><path class="cls-30" d="M358,377.22a1.15,1.15,0,0,0,1.6,0,1.18,1.18,0,0,0,0-1.62,1.11,1.11,0,0,0-1.58,0h0A1.2,1.2,0,0,0,358,377.22Z"/><path class="cls-30" d="M338.24,377.24a1.12,1.12,0,0,0,0-1.58l0,0a1.1,1.1,0,0,0-1.54,0l0,0a1.13,1.13,0,0,0,0,1.59h0A1.13,1.13,0,0,0,338.24,377.24Z"/><path class="cls-30" d="M359.58,355.7a1.12,1.12,0,0,0,0-1.58h0a1.12,1.12,0,1,0,0,1.59Z"/><path class="cls-27" d="M113,366.11a26.26,26.26,0,1,0,26.24-26.34A26.25,26.25,0,0,0,113,366.11Z"/><path class="cls-28" d="M121.21,366.11a18,18,0,1,0,18-18.08A18,18,0,0,0,121.21,366.11Z"/><path class="cls-30" d="M127.43,365.7a11.81,11.81,0,1,0,11.79-11.85A11.81,11.81,0,0,0,127.43,365.7Z"/><path class="cls-30" d="M138.09,350.51a1.12,1.12,0,0,0,2.23.21.74.74,0,0,0,0-.21,1.12,1.12,0,0,0-2.23-.21A.74.74,0,0,0,138.09,350.51Z"/><path class="cls-30" d="M138.13,380.85a1.13,1.13,0,0,0,1.14,1.12h0a1.13,1.13,0,0,0,0-2.25A1.14,1.14,0,0,0,138.13,380.85Z"/><path class="cls-30" d="M124.12,366.82a1.12,1.12,0,0,0,.21-2.23h-.21a1.12,1.12,0,0,0-.21,2.23Z"/><path class="cls-30" d="M154.35,366.78a1.13,1.13,0,1,0,0-2.26,1.14,1.14,0,0,0-1.14,1.12h0a1.11,1.11,0,0,0,1.11,1.13Z"/><path class="cls-30" d="M127.72,355.77a1.14,1.14,0,0,0,1.59,0,1.09,1.09,0,0,0,0-1.54l0,0a1.07,1.07,0,0,0-1.51-.08l-.08.08A1.15,1.15,0,0,0,127.72,355.77Z"/><path class="cls-30" d="M149.15,377.18a1.11,1.11,0,0,0,1.57,0h0a1.14,1.14,0,0,0,0-1.59,1.12,1.12,0,0,0-1.58,1.59Z"/><path class="cls-30" d="M129.37,377.22a1.13,1.13,0,1,0-1.61,0,1.13,1.13,0,0,0,1.6,0Z"/><path class="cls-30" d="M150.7,355.7a1.17,1.17,0,0,0,0-1.61,1.11,1.11,0,0,0-1.57,0l0,0a1.13,1.13,0,1,0,1.59,1.61Z"/><path class="cls-31" d="M96.8,366.42a38.82,38.82,0,0,0,38.73,38.91H350.78a38.91,38.91,0,0,0,0-77.81H135.56A38.83,38.83,0,0,0,96.8,366.4Zm8.16-1a32.48,32.48,0,0,1,32.41-32.53H348.12a32.53,32.53,0,0,1,0,65H137.37A32.47,32.47,0,0,1,105,365.45Z"/><polygon class="cls-22" points="335.57 332.34 321.29 332.34 321.29 325.02 335.57 325.02 335.57 326.61 329.14 327.15 329.14 330.5 335.57 330.94 335.57 332.34"/><rect class="cls-22" x="332.68" y="326.06" width="1.59" height="5.62"/><path class="cls-22" d="M322.94,322.7h3.94a15.3,15.3,0,0,0,.12,1.74c.07,1.43,5.68,1.13,5.68,1.13L323.43,327l-2.14-1.38,1.37-1Z"/><path class="cls-32" d="M328.37,328.59a3,3,0,1,1-3-3A3,3,0,0,1,328.37,328.59Z"/><polygon class="cls-22" points="319.36 328.88 321.67 325.26 322.4 326.28 321.98 329.52 319.36 328.88"/><polygon class="cls-22" points="350.48 332.34 336.21 332.34 336.21 325.02 350.48 325.02 350.48 326.61 344.06 327.15 344.06 330.5 350.48 330.94 350.48 332.34"/><rect class="cls-22" x="347.6" y="326.06" width="1.59" height="5.62"/><path class="cls-22" d="M337.85,322.7h3.93c.06.66.09,1.31.11,1.74.1,1.43,5.71,1.13,5.71,1.13L338.34,327l-2.13-1.38,1.36-1Z"/><path class="cls-32" d="M343.29,328.59a3.06,3.06,0,1,1,0-.12Z"/><polygon class="cls-22" points="334.27 328.88 336.6 325.26 337.33 326.28 336.88 329.52 334.27 328.88"/><path class="cls-22" d="M364.07,335.07a4.25,4.25,0,0,0-.49-.21c-.33-.11-.79-.3-1.34-.48a30.83,30.83,0,0,0-4.11-1.23c-.76-.21-1.56-.23-2.28-.38a9.85,9.85,0,0,0-2-.25l-2-.11.23-7.32,2.36.11a22.37,22.37,0,0,1,2.42.33,17.71,17.71,0,0,1,2.75.49,36.26,36.26,0,0,1,5,1.47l1.63.6.6.22-.6,1.48-.29-.09-.72-.2c-.57-.14-1.36-.38-2.16-.58s-1.6-.32-2.2-.48a6.74,6.74,0,0,1-1-.17l-.79,3.27.89.31a12.55,12.55,0,0,1,1.89.69c.69.3,1.35.61,1.87.85.23.13.44.2.59.27a.67.67,0,0,1,.23.1Z"/><polygon class="cls-22" points="363.25 334.06 361.92 333.56 363.72 328.25 365.28 328.81 363.25 334.06"/><path class="cls-22" d="M354.13,322.85a13.18,13.18,0,0,1,2.17.21c1.1.16,2.19.34,2.19.34-.07.66-.15,1.3-.18,1.73s.3.65.83.92a9.6,9.6,0,0,0,1.92.83c.72.24,1.42.4,2,.57l.87.31-.41-.1a6.68,6.68,0,0,0-1.09-.17c-.9-.11-2.12-.26-3.33-.37s-2.39,0-3.3-.05a10.13,10.13,0,0,0-1.46.05l-1.07-.76-1.08-.76,1.5-.89Z"/><path class="cls-32" d="M358.9,329.48a3.58,3.58,0,0,1-1.26,2,2.7,2.7,0,0,1-2,.62,3.2,3.2,0,0,1-2.46-3.38,2.9,2.9,0,0,1,3-2.83,2.19,2.19,0,0,1,.36,0,3,3,0,0,1,2,1.25A3.08,3.08,0,0,1,358.9,329.48Z"/><path class="cls-22" d="M350.17,328.88s.57-.93,1.16-1.76l1.25-1.77.7,1-.6,3.21-1.24-.36A11.24,11.24,0,0,0,350.17,328.88Z"/><path class="cls-22" d="M374.84,342.36s-.6-.52-1.45-1.32a36.54,36.54,0,0,0-3.37-2.7c-.64-.45-1.33-.81-1.93-1.21a16,16,0,0,0-1.76-1c-1.05-.5-1.74-.86-1.74-.86l3-6.66,2.15,1a18.42,18.42,0,0,1,2.13,1.19c.74.49,1.59.93,2.35,1.51a42.65,42.65,0,0,1,4.08,3.24l1.74,1.61-1.12,1.12-2.6-2a21.7,21.7,0,0,0-1.88-1.23c-.51-.32-.86-.56-.86-.56l-1.95,2.72s.28.25.73.62a12.82,12.82,0,0,1,1.51,1.37l2,2.14Z"/><polygon class="cls-22" points="374.43 341.12 373.41 340.18 377.05 335.93 378.27 337.03 374.43 341.12"/><path class="cls-22" d="M370.19,327.28l.61.29c.37.19.87.44,1.33.72l1.88,1.16c-.29.59-.6,1.15-.81,1.55s0,.72.43,1.15a13.1,13.1,0,0,0,1.48,1.5c.56.48,1.16.93,1.58,1.27s.71.6.71.6l-.36-.24a6.85,6.85,0,0,0-.94-.56c-.78-.45-1.86-1-2.93-1.59a24.56,24.56,0,0,0-3-1.31,7.09,7.09,0,0,0-1-.38l-.4-.12-.66-1.11-.73-1.13,1.71-.22Z"/><path class="cls-32" d="M372.12,335.21a3.11,3.11,0,0,1-4,1.17,2.47,2.47,0,0,1-.77-.74,2.72,2.72,0,0,1-.48-1,3.57,3.57,0,0,1,.22-2.32,3.13,3.13,0,0,1,1.77-1.6,2.93,2.93,0,0,1,1.21-.16,2.84,2.84,0,0,1,1.17.42,2.88,2.88,0,0,1,1.08,3.93A2.23,2.23,0,0,1,372.12,335.21Z"/><path class="cls-22" d="M364.27,331.44s.84-.65,1.75-1.29,1.8-1.13,1.8-1.13l.27,1.23L366.33,333l-1-.86C364.81,331.77,364.27,331.44,364.27,331.44Z"/><path class="cls-22" d="M382.27,353.7s-.07-.17-.18-.51-.37-.73-.62-1.27-.55-1.15-.89-1.83-.78-1.27-1.18-2a14.54,14.54,0,0,0-1.32-1.89c-.42-.58-.82-1.15-1.19-1.59-.8-.86-1.32-1.45-1.32-1.45l5.31-5,1.59,1.77c.47.55.94,1.25,1.48,1.93a19.06,19.06,0,0,1,1.59,2.32c.49.82,1,1.64,1.45,2.4s.74,1.55,1.06,2.2.57,1.17.75,1.55a3.74,3.74,0,0,1,.24.62l-1.48.58a1.3,1.3,0,0,1-.14-.26,6.65,6.65,0,0,0-.32-.66c-.32-.55-.73-1.24-1.17-1.94-.19-.36-.39-.71-.59-1.06s-.45-.59-.61-.83l-.61-.83-2.82,1.75s.14.31.39.81c.16.28.31.56.45.85s.27.66.4,1c.25.67.54,1.36.74,1.9a27.17,27.17,0,0,1,.29.87Z"/><polygon class="cls-22" points="382.42 352.38 381.81 351.1 386.81 348.63 387.54 350.11 382.42 352.38"/><path class="cls-22" d="M383.87,338c.08-.07,2.68,3.5,2.68,3.5-.52.41-1,.82-1.36,1.08-.48.44.07,1.89.73,3.22.34.66.74,1.28,1,1.8s.43.83.43.83l-.88-1.28c-.58-.7-1.34-1.66-2.1-2.61a30.77,30.77,0,0,0-2.3-2.35c-.31-.33-.59-.59-.77-.76a2,2,0,0,0-.3-.28s-.11-.62-.22-1.29-.23-1.27-.23-1.27l1.69.43Z"/><path class="cls-32" d="M382.54,346.05a3.31,3.31,0,0,1-2.27.51,2.59,2.59,0,0,1-1.86-1,3.21,3.21,0,0,1,.63-4.16,2.91,2.91,0,0,1,4.09.11l.22.27a3,3,0,0,1,.58,2.33A3.2,3.2,0,0,1,382.54,346.05Z"/><path class="cls-22" d="M376.79,339.48a20.87,20.87,0,0,1,2.08-.47c1.05-.2,2.14-.36,2.14-.36l-.26,1.24-2.68,1.81s-.29-.58-.6-1.13A9.45,9.45,0,0,0,376.79,339.48Z"/><path class="cls-22" d="M384.74,366.48s0-.79-.1-2a19.2,19.2,0,0,0-.14-2c-.11-.71-.24-1.49-.35-2.25a20,20,0,0,0-.5-2.27c-.19-.71-.33-1.38-.51-1.93l-.69-1.85,6.81-2.62s.33.9.8,2.26c.24.66.41,1.48.66,2.34a23.29,23.29,0,0,1,.59,2.73l.44,2.76c.14.88.12,1.74.18,2.44l.1,2.38h-1.57s-.21-1.63-.44-3.26c-.08-.83-.32-1.62-.43-2.22a8.57,8.57,0,0,0-.24-1l-3.3.56a8.07,8.07,0,0,0,.07.92,14.89,14.89,0,0,1,.1,2c-.05,1.48-.08,3-.08,3Z"/><polygon class="cls-22" points="385.34 365.31 385.26 363.91 390.82 363.51 390.92 365.14 385.34 365.31"/><path class="cls-22" d="M392.09,352.51c.11-.06,1.17,4.26,1.17,4.26-.63.18-1.23.36-1.65.5-1.25.43-.09,6.15-.24,6.19l-.09-.41a8.32,8.32,0,0,0-.23-1.08c-.27-.87-.62-2-1-3.2s-.9-2.26-1.22-3.09c-.18-.39-.32-.75-.43-1a2.93,2.93,0,0,1-.19-.4s.14-.62.3-1.24a12.62,12.62,0,0,0,.25-1.31l1.41,1.06Z"/><path class="cls-32" d="M387.83,359.5a3.32,3.32,0,0,1-2.29-.39,2.62,2.62,0,0,1-1.36-1.64,3.19,3.19,0,0,1,2.15-3.58,2.88,2.88,0,0,1,3.74,1.64,2.53,2.53,0,0,1,.12.36,3.09,3.09,0,0,1-.34,2.34A3.16,3.16,0,0,1,387.83,359.5Z"/><path class="cls-22" d="M385,351.24s1.09.13,2.11.35l2.09.47-.7,1.07-3.18.68a8.8,8.8,0,0,0-.11-1.29A9.23,9.23,0,0,0,385,351.24Z"/><path class="cls-22" d="M381.9,380.06a3.22,3.22,0,0,0,.23-.5c.11-.32.28-.79.48-1.34s.45-1.18.66-1.89.38-1.48.57-2.22a14.29,14.29,0,0,0,.42-2.26c.13-.72.23-1.42.31-2l.1-2,7.27.31s-.05.95-.11,2.39c-.11.69-.24,1.52-.36,2.41a20.22,20.22,0,0,1-.52,2.76c-.26.93-.48,1.82-.7,2.69s-.58,1.62-.81,2.3-.47,1.23-.58,1.64a3.81,3.81,0,0,1-.29.57l-1.44-.62a4.86,4.86,0,0,0,.32-1c.15-.59.37-1.38.59-2.15.1-.43.22-.81.31-1.19s.13-.73.17-1c.11-.6.17-1,.17-1l-3.23-.82-.3.9c-.07.27-.18.57-.28.9a8.62,8.62,0,0,1-.45,1c-.31.68-.62,1.35-.83,1.85a3.63,3.63,0,0,1-.43.83Z"/><polygon class="cls-22" points="382.9 379.24 383.39 377.91 388.69 379.77 388.1 381.33 382.9 379.24"/><path class="cls-22" d="M394.18,370.19v.67a9.54,9.54,0,0,1-.24,1.51c-.14,1.1-.32,2.17-.32,2.17a10.7,10.7,0,0,1-1.72-.18c-1.32-.13-2.54,5.63-2.69,5.6s.12-.61.32-1.5a33.47,33.47,0,0,0,.35-3.34c.12-1.2,0-2.44.09-3.31v-1.53l.74-1,.76-1.07.87,1.52Z"/><path class="cls-32" d="M387.49,374.91a3.2,3.2,0,0,1-1.92-1.27,2.75,2.75,0,0,1-.62-2.06,2.9,2.9,0,0,1,1.17-1.77,3.33,3.33,0,0,1,2.24-.66,3.23,3.23,0,0,1,2.15,1.07,2.83,2.83,0,0,1,.59,2.29,2.91,2.91,0,0,1-1.23,2A3.2,3.2,0,0,1,387.49,374.91Z"/><path class="cls-22" d="M388.18,366.18l.56.37,1.2.8c.88.61,1.74,1.27,1.74,1.27l-1,.69-3.19-.63s.2-.62.37-1.24c.09-.33.18-.62.26-.86A1,1,0,0,0,388.18,366.18Z"/><path class="cls-22" d="M374.53,390.8a4.44,4.44,0,0,0,.37-.38l1-1.06c.38-.45.89-.92,1.34-1.52s.89-1.22,1.36-1.84a14.45,14.45,0,0,0,1.23-1.94,13.17,13.17,0,0,0,1-1.75l.88-1.76,6.61,3-1,2.15c-.29.65-.77,1.34-1.22,2.11a20.09,20.09,0,0,1-1.51,2.36l-1.68,2.22c-.54.72-1.13,1.31-1.6,1.84s-.87,1-1.16,1.29a2.85,2.85,0,0,1-.47.45l-1.12-1.14a4.72,4.72,0,0,0,.68-.8c.37-.47.88-1.13,1.37-1.79a13.77,13.77,0,0,0,1.27-1.85l.53-.87-2.68-2-.61.71a15.12,15.12,0,0,1-1.39,1.49c-.53.51-1.08,1-1.49,1.38a3.52,3.52,0,0,1-.67.61Z"/><polygon class="cls-22" points="375.78 390.42 376.74 389.36 380.92 393.08 379.82 394.29 375.78 390.42"/><path class="cls-22" d="M389.59,386.26a15.45,15.45,0,0,1-1,1.94l-1.17,1.88c-.59-.3-1.13-.61-1.51-.82-1.15-.6-4.45,4.26-4.57,4.17s.36-.49.85-1.29,1-1.86,1.58-2.93,1-2.22,1.35-3a11.86,11.86,0,0,0,.51-1.41l1.09-.69,1.13-.71.23,1.74Z"/><path class="cls-32" d="M381.65,388.12a3.45,3.45,0,0,1-1.33-1.92,2.6,2.6,0,0,1,.22-2.11,3.18,3.18,0,0,1,4-1,2.92,2.92,0,0,1,1.46,3.84,3.07,3.07,0,0,1-.17.31,2.83,2.83,0,0,1-3.84,1.13,2.65,2.65,0,0,1-.39-.26Z"/><path class="cls-22" d="M385.51,380.28l.41.55q.45.6.84,1.23c.56.86,1.11,1.82,1.11,1.82l-1.21.26L384,382.31l.82-1a4,4,0,0,0,.52-.7Z"/><path class="cls-22" d="M363.25,398.1a11,11,0,0,0,1.8-.79c.52-.22,1.13-.53,1.79-.85s1.3-.8,2-1.19c.35-.21.68-.4,1-.61a8.91,8.91,0,0,0,.9-.69c.59-.42,1.12-.83,1.6-1.2l1.45-1.31,4.94,5.39L377,398.42c-.56.44-1.22.93-1.94,1.47-.35.27-.73.56-1.09.82s-.8.51-1.21.76c-.83.49-1.61,1-2.4,1.44l-2.18,1a13.3,13.3,0,0,1-2.19,1l-.57-1.47a40.79,40.79,0,0,0,5.59-3.39l-1.73-2.89a33.62,33.62,0,0,1-5.45,2.25Z"/><polygon class="cls-22" points="364.56 398.28 365.84 397.68 368.25 402.71 366.78 403.44 364.56 398.28"/><path class="cls-22" d="M378.9,399.83s-.2.19-.52.46l-1.21.9c-.88.65-1.75,1.32-1.75,1.32-.43-.52-.82-1-1.1-1.36-.42-.53-1.87,0-3.22.69-.3.18-.63.35-.94.53l-.83.4-.84.43,1.27-.87c.75-.52,1.67-1.34,2.59-2.07s1.75-1.69,2.41-2.31a10.89,10.89,0,0,0,1-1.05l1.27-.21c.63-.13,1.28-.23,1.28-.23l-.45,1.7Z"/><path class="cls-32" d="M370.85,398.42a3.2,3.2,0,0,1,.52-4.13,2.65,2.65,0,0,1,2.08-.45,3.39,3.39,0,0,1,2.06,1.13,3.22,3.22,0,0,1,.76,2.26,2.93,2.93,0,0,1-5.42,1.19Z"/><path class="cls-22" d="M377.45,392.7l.17.65c.06.41.17.91.27,1.44.19,1,.33,2.12.33,2.12L377,396.7,375.17,394s.59-.3,1.12-.59c.3-.16.59-.34.81-.43Z"/><path class="cls-22" d="M350.46,400.5a2.81,2.81,0,0,0,.58,0h1.42c.61,0,1.26-.06,2-.12s1.5-.25,2.28-.36a9.92,9.92,0,0,0,2.22-.5c.72-.17,1.39-.33,2-.49l1.82-.66,2.57,6.85-2.25.82c-.67.18-1.47.38-2.33.59a15.87,15.87,0,0,1-2.72.58l-2.77.45c-.88.08-1.7.08-2.43.14l-1.7.08a3.32,3.32,0,0,1-.63,0V406.3l1-.12,2.22-.3,1.21-.17,1-.24c.57-.12,1-.24,1-.24l-.5-3.3-.94.06c-.27,0-.61.07-1,.1h-3.1l-.93,0Z"/><polygon class="cls-22" points="351.63 401.12 353.06 401.03 353.4 406.66 351.77 406.71 351.63 401.12"/><path class="cls-22" d="M364.36,408l-.66.24c-.39.09-.94.24-1.46.4-1.08.25-2.13.53-2.13.53-.21-.65-.38-1.25-.49-1.69-.41-1.27-6.14-.14-6.18-.28s.6-.11,1.5-.31l3.2-1c.59-.17,1.13-.41,1.65-.61l1.41-.62c.43-.18.75-.31,1-.4l.33-.17,1.27.28c.64.11,1.29.27,1.29.27l-1,1.42Z"/><path class="cls-32" d="M357.43,403.7a3.42,3.42,0,0,1,.39-2.28,2.72,2.72,0,0,1,1.64-1.35,2.77,2.77,0,0,1,2.08.36,3.45,3.45,0,0,1,1.49,1.81,3.15,3.15,0,0,1-.15,2.41,3,3,0,0,1-4.08,1.17l-.11-.07A3.08,3.08,0,0,1,357.43,403.7Z"/><path class="cls-22" d="M365.66,400.86a3.51,3.51,0,0,1-.09.68c-.09.41-.18.9-.28,1.41-.21,1.06-.48,2.11-.48,2.11l-1.05-.69-.65-3.2,1.28-.14a8,8,0,0,0,.89-.08Z"/><polygon class="cls-22" points="334.56 400.5 348.83 400.5 348.83 407.81 334.56 407.81 334.56 406.23 340.97 405.7 340.97 402.33 334.56 401.91 334.56 400.5"/><rect class="cls-22" x="335.83" y="401.15" width="1.59" height="5.62"/><path class="cls-22" d="M347.16,410.17h-3.89c-.07-.68-.11-1.3-.14-1.75-.1-1.41-5.71-1.13-5.71-1.13l9.26-1.38,2.15,1.38-1.36,1Z"/><path class="cls-32" d="M341.74,404.28a3,3,0,1,1,3,3.1A3.06,3.06,0,0,1,341.74,404.28Z"/><polygon class="cls-22" points="350.77 403.96 348.43 407.59 347.71 406.56 348.14 403.36 350.77 403.96"/><polygon class="cls-22" points="319.65 400.5 333.92 400.5 333.92 407.81 319.65 407.81 319.65 406.23 326.07 405.7 326.07 402.33 319.65 401.91 319.65 400.5"/><rect class="cls-22" x="320.93" y="401.15" width="1.59" height="5.62"/><path class="cls-22" d="M332.25,410.17h-3.92c0-.68-.08-1.3-.11-1.75-.1-1.41-5.7-1.13-5.7-1.13l9.26-1.38,2.14,1.38-1.38,1Z"/><path class="cls-32" d="M326.83,404.28a3,3,0,1,1,3,3.1A3.06,3.06,0,0,1,326.83,404.28Z"/><polygon class="cls-22" points="335.83 403.96 333.51 407.59 332.8 406.56 333.23 403.36 335.83 403.96"/><polygon class="cls-22" points="151.78 332.34 137.5 332.34 137.5 325.02 151.78 325.02 151.78 326.61 145.33 327.15 145.33 330.5 151.78 330.94 151.78 332.34"/><rect class="cls-22" x="148.89" y="326.06" width="1.59" height="5.62"/><path class="cls-22" d="M139.14,322.7h3.92c.07.66.1,1.31.13,1.74.09,1.43,5.7,1.13,5.7,1.13L139.63,327l-2.13-1.38,1.36-1Z"/><path class="cls-32" d="M144.58,328.59a3.06,3.06,0,1,1,0-.12Z"/><polygon class="cls-22" points="135.56 328.88 137.88 325.26 138.61 326.28 138.19 329.52 135.56 328.88"/><polygon class="cls-22" points="166.69 332.34 152.41 332.34 152.41 325.02 166.69 325.02 166.69 326.61 160.26 327.15 160.26 330.5 166.69 330.94 166.69 332.34"/><rect class="cls-22" x="163.8" y="326.06" width="1.59" height="5.62"/><path class="cls-22" d="M154.07,322.7H158c0,.66.08,1.31.11,1.74.08,1.43,5.7,1.13,5.7,1.13L154.56,327l-2.14-1.38,1.35-1Z"/><path class="cls-32" d="M159.49,328.59a3.06,3.06,0,1,1,0-.12Z"/><polygon class="cls-22" points="150.47 328.88 152.79 325.26 153.52 326.28 153.09 329.52 150.47 328.88"/><polygon class="cls-22" points="182.58 332.34 168.31 332.34 168.31 325.02 182.58 325.02 182.58 326.61 176.15 327.15 176.15 330.5 182.58 330.94 182.58 332.34"/><rect class="cls-22" x="179.68" y="326.06" width="1.61" height="5.62"/><path class="cls-22" d="M170,322.7h3.91c.05.66.09,1.31.12,1.74.08,1.43,5.68,1.13,5.68,1.13L170.46,327l-2.12-1.38,1.35-1Z"/><path class="cls-32" d="M175.39,328.59a3.06,3.06,0,1,1,0-.12Z"/><polygon class="cls-22" points="166.36 328.88 168.69 325.26 169.4 326.28 168.98 329.52 166.36 328.88"/><polygon class="cls-22" points="197.49 332.34 183.22 332.34 183.22 325.02 197.49 325.02 197.49 326.61 191.07 327.15 191.07 330.5 197.49 330.94 197.49 332.34"/><rect class="cls-22" x="194.61" y="326.06" width="1.6" height="5.62"/><path class="cls-22" d="M184.88,322.7h3.92c0,.66.08,1.31.11,1.74.1,1.43,5.7,1.13,5.7,1.13L185.34,327l-2.12-1.38,1.38-1Z"/><path class="cls-32" d="M190.3,328.59a3.06,3.06,0,1,1,0-.12Z"/><polygon class="cls-22" points="181.3 328.88 183.6 325.26 184.32 326.28 183.9 329.52 181.3 328.88"/><polygon class="cls-22" points="213.02 332.34 198.74 332.34 198.74 325.02 213.02 325.02 213.02 326.61 206.59 327.15 206.59 330.5 213.02 330.94 213.02 332.34"/><rect class="cls-22" x="210.16" y="326.06" width="1.59" height="5.62"/><path class="cls-22" d="M200.41,322.7h3.91c.05.66.08,1.31.12,1.74.11,1.43,5.72,1.13,5.72,1.13L200.87,327l-2.13-1.38,1.36-1Z"/><path class="cls-32" d="M205.83,328.59a3.06,3.06,0,1,1,0-.12Z"/><polygon class="cls-22" points="196.83 328.88 199.13 325.26 199.86 326.28 199.43 329.52 196.83 328.88"/><polygon class="cls-22" points="227.91 332.34 213.65 332.34 213.65 325.02 227.91 325.02 227.91 326.61 221.5 327.15 221.5 330.5 227.91 330.94 227.91 332.34"/><rect class="cls-22" x="225.06" y="326.06" width="1.59" height="5.62"/><path class="cls-22" d="M215.32,322.7h3.92c0,.66.09,1.31.12,1.74.11,1.43,5.7,1.13,5.7,1.13L215.82,327l-2.17-1.38,1.38-1Z"/><path class="cls-32" d="M220.75,328.59a3,3,0,1,1-3-3.12,3.06,3.06,0,0,1,3,3.1Z"/><polygon class="cls-22" points="211.74 328.88 214.05 325.26 214.78 326.28 214.34 329.52 211.74 328.88"/><polygon class="cls-22" points="243.82 332.34 229.54 332.34 229.54 325.02 243.82 325.02 243.82 326.61 237.4 327.15 237.4 330.5 243.82 330.94 243.82 332.34"/><rect class="cls-22" x="240.95" y="326.06" width="1.6" height="5.62"/><path class="cls-22" d="M231.21,322.7h3.9c.07.66.11,1.31.14,1.74.1,1.43,5.7,1.13,5.7,1.13L231.68,327l-2.14-1.38,1.39-1Z"/><path class="cls-32" d="M236.64,328.59a3,3,0,1,1-3-3.12,3.06,3.06,0,0,1,3,3.1Z"/><polygon class="cls-22" points="227.61 328.88 229.94 325.26 230.66 326.28 230.24 329.52 227.61 328.88"/><polygon class="cls-22" points="258.73 332.34 244.45 332.34 244.45 325.02 258.73 325.02 258.73 326.61 252.31 327.15 252.31 330.5 258.73 330.94 258.73 332.34"/><rect class="cls-22" x="255.87" y="326.06" width="1.6" height="5.62"/><path class="cls-22" d="M246.14,322.7h3.91c0,.66.09,1.31.1,1.74.1,1.43,5.72,1.13,5.72,1.13L246.63,327l-2.18-1.38,1.39-1Z"/><path class="cls-32" d="M251.54,328.59a3.06,3.06,0,1,1,0-.12Z"/><polygon class="cls-22" points="242.55 328.88 244.86 325.26 245.57 326.28 245.15 329.52 242.55 328.88"/><polygon class="cls-22" points="274.18 332.34 259.88 332.34 259.88 325.02 274.18 325.02 274.18 326.61 267.75 327.15 267.75 330.5 274.18 330.94 274.18 332.34"/><rect class="cls-22" x="271.3" y="326.06" width="1.59" height="5.62"/><path class="cls-22" d="M261.57,322.7h3.9c.06.66.09,1.31.13,1.74.1,1.43,5.7,1.13,5.7,1.13L262.06,327l-2.18-1.38,1.39-1Z"/><path class="cls-32" d="M267,328.59a3.06,3.06,0,1,1,0-.12Z"/><polygon class="cls-22" points="257.97 328.88 260.29 325.26 261.01 326.28 260.57 329.52 257.97 328.88"/><polygon class="cls-22" points="289.09 332.34 274.81 332.34 274.81 325.02 289.09 325.02 289.09 326.61 282.66 327.15 282.66 330.5 289.09 330.94 289.09 332.34"/><rect class="cls-22" x="286.21" y="326.06" width="1.59" height="5.62"/><path class="cls-22" d="M276.47,322.7h3.92c.05.66.11,1.31.14,1.74.08,1.43,5.68,1.13,5.68,1.13L277,326.92l-2.16-1.38,1.38-1Z"/><path class="cls-32" d="M281.9,328.59a3,3,0,1,1-3-3A3,3,0,0,1,281.9,328.59Z"/><polygon class="cls-22" points="272.89 328.88 275.2 325.26 275.92 326.28 275.49 329.52 272.89 328.88"/><polygon class="cls-22" points="304.99 332.34 290.71 332.34 290.71 325.02 304.99 325.02 304.99 326.61 298.54 327.15 298.54 330.5 304.99 330.94 304.99 332.34"/><rect class="cls-22" x="302.11" y="326.06" width="1.59" height="5.62"/><path class="cls-22" d="M292.37,322.7h3.91c0,.66.1,1.31.13,1.74.1,1.43,5.7,1.13,5.7,1.13L292.86,327l-2.15-1.38,1.36-1Z"/><path class="cls-32" d="M297.8,328.59a3.06,3.06,0,1,1,0-.12Z"/><polygon class="cls-22" points="288.78 328.88 291.1 325.26 291.82 326.28 291.4 329.52 288.78 328.88"/><polygon class="cls-22" points="319.9 332.34 305.62 332.34 305.62 325.02 319.9 325.02 319.9 326.61 313.46 327.15 313.46 330.5 319.9 330.94 319.9 332.34"/><rect class="cls-22" x="317.01" y="326.06" width="1.59" height="5.62"/><path class="cls-22" d="M307.28,322.7h3.93c0,.66.07,1.31.11,1.74.09,1.43,5.69,1.13,5.69,1.13L307.77,327l-2.15-1.38,1.36-1Z"/><path class="cls-32" d="M312.71,328.59a3.06,3.06,0,1,1,0-.12Z"/><polygon class="cls-22" points="303.7 328.88 306.01 325.26 306.72 326.28 306.3 329.52 303.7 328.88"/><polygon class="cls-22" points="303.98 400.5 318.25 400.5 318.25 407.81 303.98 407.81 303.98 406.23 310.4 405.7 310.4 402.33 303.98 401.91 303.98 400.5"/><rect class="cls-22" x="305.26" y="401.15" width="1.59" height="5.62"/><path class="cls-22" d="M316.59,410.17h-3.92a13,13,0,0,0-.14-1.75c-.08-1.41-5.69-1.13-5.69-1.13l9.26-1.38,2.15,1.38-1.38,1Z"/><path class="cls-32" d="M311.15,404.28a3,3,0,1,1,3,3A3,3,0,0,1,311.15,404.28Z"/><polygon class="cls-22" points="320.17 403.96 317.85 407.59 317.12 406.56 317.57 403.36 320.17 403.96"/><polygon class="cls-22" points="289.05 400.5 303.33 400.5 303.33 407.81 289.05 407.81 289.05 406.23 295.5 405.7 295.5 402.33 289.05 401.91 289.05 400.5"/><rect class="cls-22" x="290.34" y="401.15" width="1.59" height="5.62"/><path class="cls-22" d="M301.68,410.17h-3.94c0-.68-.08-1.3-.11-1.75-.08-1.41-5.7-1.13-5.7-1.13l9.25-1.38,2.15,1.38-1.36,1Z"/><path class="cls-32" d="M296.24,404.28a3,3,0,1,1,3,3.1A3.07,3.07,0,0,1,296.24,404.28Z"/><polygon class="cls-22" points="305.26 403.96 302.94 407.59 302.21 406.56 302.66 403.36 305.26 403.96"/><polygon class="cls-22" points="273.38 400.5 287.65 400.5 287.65 407.81 273.38 407.81 273.38 406.23 279.81 405.7 279.81 402.33 273.38 401.91 273.38 400.5"/><rect class="cls-22" x="274.69" y="401.15" width="1.59" height="5.62"/><path class="cls-22" d="M286,410.17h-3.91c0-.68-.1-1.3-.13-1.75-.08-1.41-5.69-1.13-5.69-1.13l9.24-1.38,2.14,1.38-1.35,1Z"/><path class="cls-32" d="M280.58,404.28a3,3,0,1,1,3,3.1,3,3,0,0,1-3-3.1Z"/><polygon class="cls-22" points="289.6 403.96 287.27 407.59 286.54 406.56 286.99 403.36 289.6 403.96"/><polygon class="cls-22" points="258.46 400.5 272.75 400.5 272.75 407.81 258.46 407.81 258.46 406.23 264.9 405.7 264.9 402.33 258.46 401.91 258.46 400.5"/><rect class="cls-22" x="259.76" y="401.15" width="1.59" height="5.62"/><path class="cls-22" d="M271.08,410.17h-3.91c0-.68-.08-1.3-.12-1.75-.09-1.41-5.71-1.13-5.71-1.13l9.26-1.38,2.15,1.38-1.37,1Z"/><path class="cls-32" d="M265.67,404.28a3,3,0,1,1,3,3.1,3,3,0,0,1-3-3.1Z"/><polygon class="cls-22" points="274.69 403.96 272.37 407.59 271.62 406.56 272.06 403.36 274.69 403.96"/><polygon class="cls-22" points="242.81 400.5 257.09 400.5 257.09 407.81 242.81 407.81 242.81 406.23 249.22 405.7 249.22 402.33 242.81 401.91 242.81 400.5"/><rect class="cls-22" x="244.1" y="401.15" width="1.59" height="5.62"/><path class="cls-22" d="M255.42,410.17H251.5a15.21,15.21,0,0,0-.13-1.75c-.07-1.41-5.68-1.13-5.68-1.13l9.25-1.38,2.15,1.38-1.38,1Z"/><path class="cls-32" d="M250,404.28a3,3,0,0,1,5.95-.77,3.3,3.3,0,0,1,0,.77,3,3,0,0,1-5.95.78A3.39,3.39,0,0,1,250,404.28Z"/><polygon class="cls-22" points="259 403.96 256.69 407.59 255.95 406.56 256.39 403.36 259 403.96"/><polygon class="cls-22" points="227.89 400.5 242.18 400.5 242.18 407.81 227.89 407.81 227.89 406.23 234.31 405.7 234.31 402.33 227.89 401.91 227.89 400.5"/><rect class="cls-22" x="229.18" y="401.15" width="1.57" height="5.62"/><path class="cls-22" d="M240.49,410.17H236.6c-.07-.68-.1-1.3-.13-1.75-.1-1.41-5.71-1.13-5.71-1.13l9.27-1.38,2.15,1.38-1.38,1Z"/><path class="cls-32" d="M235.1,404.28a3,3,0,1,1,3,3.1,3,3,0,0,1-3-3.1Z"/><polygon class="cls-22" points="244.1 403.96 241.77 407.59 241.05 406.56 241.47 403.36 244.1 403.96"/><polygon class="cls-22" points="212.24 400.5 226.52 400.5 226.52 407.81 212.24 407.81 212.24 406.23 218.64 405.7 218.64 402.33 212.24 401.91 212.24 400.5"/><rect class="cls-22" x="213.5" y="401.15" width="1.59" height="5.62"/><path class="cls-22" d="M224.82,410.17h-3.89c-.06-.68-.09-1.3-.14-1.75-.09-1.41-5.7-1.13-5.7-1.13l9.26-1.38,2.17,1.38-1.39,1Z"/><path class="cls-32" d="M219.41,404.28a3,3,0,1,1,3,3A3,3,0,0,1,219.41,404.28Z"/><polygon class="cls-22" points="228.41 403.96 226.1 407.59 225.38 406.56 225.81 403.36 228.41 403.96"/><polygon class="cls-22" points="197.32 400.5 211.6 400.5 211.6 407.81 197.32 407.81 197.32 406.23 203.72 405.7 203.72 402.33 197.32 401.91 197.32 400.5"/><rect class="cls-22" x="198.59" y="401.15" width="1.6" height="5.62"/><path class="cls-22" d="M209.92,410.17H206c0-.68-.08-1.3-.11-1.75-.1-1.41-5.7-1.13-5.7-1.13l9.24-1.38,2.17,1.38-1.4,1Z"/><path class="cls-32" d="M204.48,404.28a3,3,0,1,1,3,3.1A3.08,3.08,0,0,1,204.48,404.28Z"/><polygon class="cls-22" points="213.5 403.96 211.18 407.59 210.47 406.56 210.9 403.36 213.5 403.96"/><polygon class="cls-22" points="181.65 400.5 195.92 400.5 195.92 407.81 181.65 407.81 181.65 406.23 188.07 405.7 188.07 402.33 181.65 401.91 181.65 400.5"/><rect class="cls-22" x="182.93" y="401.15" width="1.59" height="5.62"/><path class="cls-22" d="M194.26,410.17h-3.92c0-.68-.11-1.3-.14-1.75-.07-1.41-5.69-1.13-5.69-1.13l9.26-1.38,2.15,1.38-1.38,1Z"/><path class="cls-32" d="M188.81,404.28a3,3,0,1,1,3,3.1A3.08,3.08,0,0,1,188.81,404.28Z"/><polygon class="cls-22" points="197.84 403.96 195.52 407.59 194.81 406.56 195.24 403.36 197.84 403.96"/><polygon class="cls-22" points="166.72 400.5 180.99 400.5 180.99 407.81 166.72 407.81 166.72 406.23 173.15 405.7 173.15 402.33 166.72 401.91 166.72 400.5"/><rect class="cls-22" x="168.01" y="401.15" width="1.59" height="5.62"/><path class="cls-22" d="M179.35,410.17h-3.94c0-.68-.09-1.3-.11-1.75-.1-1.41-5.7-1.13-5.7-1.13l9.25-1.38,2.14,1.38-1.36,1Z"/><path class="cls-32" d="M173.91,404.28a3,3,0,1,1,3,3.1A3.07,3.07,0,0,1,173.91,404.28Z"/><polygon class="cls-22" points="182.93 403.96 180.61 407.59 179.88 406.56 180.33 403.36 182.93 403.96"/><polygon class="cls-22" points="151.05 400.5 165.33 400.5 165.33 407.81 151.05 407.81 151.05 406.23 157.5 405.7 157.5 402.33 151.05 401.91 151.05 400.5"/><rect class="cls-22" x="152.34" y="401.15" width="1.59" height="5.62"/><path class="cls-22" d="M163.67,410.17h-3.93c0-.68-.08-1.3-.1-1.75-.08-1.41-5.71-1.13-5.71-1.13l9.25-1.38,2.15,1.38-1.36,1Z"/><path class="cls-32" d="M158.25,404.28a3,3,0,1,1,3,3.1,3,3,0,0,1-3-3.1Z"/><polygon class="cls-22" points="167.27 403.96 164.94 407.59 164.21 406.56 164.64 403.36 167.27 403.96"/><polygon class="cls-22" points="136.13 400.5 150.42 400.5 150.42 407.81 136.13 407.81 136.13 406.23 142.57 405.7 142.57 402.33 136.13 401.91 136.13 400.5"/><rect class="cls-22" x="137.43" y="401.15" width="1.59" height="5.62"/><path class="cls-22" d="M148.76,410.17h-3.92c0-.68-.1-1.3-.12-1.75-.1-1.41-5.71-1.13-5.71-1.13l9.27-1.38,2.14,1.38-1.36,1Z"/><path class="cls-32" d="M143.34,404.28a3,3,0,1,1,3,3.1,3,3,0,0,1-3-3.1Z"/><polygon class="cls-22" points="152.34 403.96 150.02 407.59 149.28 406.56 149.73 403.36 152.34 403.96"/><path class="cls-22" d="M122.67,398s.76.26,1.85.67a13.84,13.84,0,0,0,1.89.58c.69.21,1.45.41,2.21.59s1.54.26,2.26.37a11.22,11.22,0,0,0,2,.21l2,.11-.16,7.31s-.94-.06-2.37-.12a13.79,13.79,0,0,1-2.4-.28c-.9-.11-1.83-.27-2.78-.42a24.9,24.9,0,0,1-2.68-.71c-.44-.11-.86-.21-1.25-.34s-.75-.25-1.07-.38l-2.27-.84.62-1.46,3.16.87c1.63.32,3.22.56,3.22.56l.73-3.24s-1.41-.46-2.79-1-2.69-1.23-2.69-1.23Z"/><polygon class="cls-22" points="123.51 398.93 124.84 399.43 123.1 404.75 121.56 404.2 123.51 398.93"/><path class="cls-22" d="M132.78,410h-.69a12.65,12.65,0,0,1-1.5-.13c-1.08-.15-2.16-.35-2.16-.35,0-.65.11-1.3.14-1.73.05-.7-1.38-1.16-2.77-1.68-.74-.24-1.43-.44-2-.57-.28-.07-.49-.14-.64-.19a1.14,1.14,0,0,1-.25-.06,13.39,13.39,0,0,0,1.53.21c.89.09,2.1.25,3.3.34h3.31a5.6,5.6,0,0,0,1.08-.07h.39s.54.4,1.07.77l1.1.76-1.51.87Z"/><path class="cls-32" d="M127.93,403.5a3.11,3.11,0,0,1,3.25-2.64,2.92,2.92,0,0,1,1.81,1.06,3.51,3.51,0,0,1,.69,2.27,3,3,0,0,1-1,2.14,2.69,2.69,0,0,1-2.26.71,2.92,2.92,0,0,1-2.49-3.54Z"/><path class="cls-22" d="M136.67,404s-.59.89-1.17,1.81-1.2,1.76-1.2,1.76l-.73-1,.57-3.23s.63.21,1.25.38S136.67,404,136.67,404Z"/><path class="cls-22" d="M111.83,390.8s.57.49,1.44,1.3c.24.19.48.42.71.63l.87.65c.56.43,1.2.89,1.84,1.36a33.4,33.4,0,0,0,3.72,2.13c1,.53,1.75.86,1.75.86l-2.86,6.73-2.15-1a46.47,46.47,0,0,1-4.54-2.62c-.78-.53-1.53-1.13-2.23-1.66l-1-.76c-.3-.22-.59-.55-.86-.79l-1.76-1.6,1.1-1.14,2.61,2,2.77,1.75,1.91-2.73s-1.14-1-2.24-2a20.29,20.29,0,0,1-2-2.14Z"/><polygon class="cls-22" points="112.23 392.01 113.27 392.95 109.68 397.25 108.46 396.17 112.23 392.01"/><path class="cls-22" d="M116.66,405.81l-2-1-1.84-1.11c.28-.59.59-1.15.78-1.56.35-.64-.83-1.58-1.94-2.62-.56-.47-1.15-.93-1.59-1.24a8.07,8.07,0,0,1-.73-.58,2.62,2.62,0,0,1,.34.24c.24.12.57.29,1,.53.83.44,1.84,1.07,3,1.57s2.22.93,3,1.25a11.18,11.18,0,0,0,1.44.48s.35.55.68,1.1.73,1.13.73,1.13l-1.72.24Z"/><path class="cls-32" d="M114.64,397.9a2.91,2.91,0,1,1-.33.59A3.08,3.08,0,0,1,114.64,397.9Z"/><path class="cls-22" d="M122.53,401.58s-.84.65-1.73,1.27a19.52,19.52,0,0,1-1.8,1.21l-.26-1.27,1.71-2.73s.14.1.31.25a8.52,8.52,0,0,0,.71.55Z"/><path class="cls-22" d="M104.19,379.45a1.61,1.61,0,0,0,.22.48c.14.32.35.77.61,1.28s.52,1.2.89,1.79.81,1.31,1.21,2a19.22,19.22,0,0,0,1.34,1.87,15.47,15.47,0,0,0,1.22,1.58l1.32,1.44L105.72,395s-.65-.7-1.6-1.76a23.31,23.31,0,0,1-1.51-1.93c-.5-.72-1.15-1.44-1.61-2.26s-1-1.65-1.45-2.42-.75-1.52-1.09-2.16-.58-1.18-.75-1.56a3.87,3.87,0,0,1-.25-.59l1.45-.61c0,.08.1.16.14.24a5.38,5.38,0,0,0,.38.66c.31.54.71,1.26,1.13,1.95a18.73,18.73,0,0,0,1.25,1.89c.37.47.61.81.61.81l2.82-1.77-.42-.83a14.84,14.84,0,0,1-.86-1.85c-.28-.69-.54-1.4-.74-1.9a4.35,4.35,0,0,1-.25-.63.79.79,0,0,1-.06-.22Z"/><polygon class="cls-22" points="104.08 380.75 104.69 382.03 99.71 384.55 98.98 383.09 104.08 380.75"/><path class="cls-22" d="M102.76,395.17l-.45-.51a10.81,10.81,0,0,1-.94-1.18L100,391.7c.51-.42,1-.82,1.33-1.11,1-.82-2.27-5.73-2.15-5.8s.08.14.24.36a7.3,7.3,0,0,0,.64.9c.58.7,1.35,1.65,2.11,2.59s1.71,1.71,2.32,2.36a14.67,14.67,0,0,0,1.09,1l.22,1.28c.13.64.24,1.31.24,1.31l-1.67-.45Z"/><path class="cls-32" d="M104,387.08a3.41,3.41,0,0,1,2.26-.53,2.71,2.71,0,0,1,1.88,1,3.21,3.21,0,0,1-.61,4.16,2.88,2.88,0,0,1-4.07-.06,3.61,3.61,0,0,1-.25-.3,3,3,0,0,1-.58-2.28A3,3,0,0,1,104,387.08Z"/><path class="cls-22" d="M109.82,393.6s-1,.3-2.11.5l-2.09.36.22-1.24,2.67-1.84.61,1.12q.21.39.45.75Z"/><path class="cls-22" d="M101.63,366.7s0,.78.09,1.95a38.19,38.19,0,0,0,.53,4.28,18.61,18.61,0,0,0,.55,2.23,10.85,10.85,0,0,0,.55,1.95c.39,1.1.66,1.83.66,1.83l-6.79,2.69s-.32-.9-.81-2.24a21.06,21.06,0,0,1-.68-2.35c-.19-.86-.49-1.8-.64-2.71a41.22,41.22,0,0,1-.62-5.2c-.08-1.43-.13-2.39-.13-2.39h1.59s.21,1.65.42,3.27c.11.8.38,1.61.49,2.2l.23,1,3.3-.57a6.73,6.73,0,0,0-.09-.93,10.44,10.44,0,0,1-.12-2c0-1.48.07-2.95.07-2.95Z"/><polygon class="cls-22" points="101.04 367.85 101.11 369.26 95.54 369.71 95.44 368.06 101.04 367.85"/><path class="cls-22" d="M94.4,380.7s-.08-.26-.23-.64a10.22,10.22,0,0,1-.43-1.46c-.3-1.08-.56-2.14-.56-2.14.64-.21,1.23-.39,1.67-.52s.48-.56.49-1.14a12.16,12.16,0,0,0,0-2.09c-.06-.75-.16-1.49-.24-2a5.8,5.8,0,0,1-.07-.93,1.69,1.69,0,0,0,.07.41,7.92,7.92,0,0,0,.28,1.09c.25.87.62,2,1,3.2a32.44,32.44,0,0,0,1.25,3c.18.43.32.77.44,1a2.82,2.82,0,0,1,.21.38L98,380.15c-.14.63-.27,1.31-.27,1.31l-1.4-1Z"/><path class="cls-32" d="M98.57,373.7a3.23,3.23,0,0,1,3.69,2,2.23,2.23,0,0,1,0,1.09,3,3,0,0,1-.33,1,3.37,3.37,0,0,1-1.8,1.5,3,3,0,0,1-2.37-.07,3.18,3.18,0,0,1-1-.74,3.09,3.09,0,0,1-.53-1.13,2.89,2.89,0,0,1,2-3.57A2,2,0,0,1,98.57,373.7Z"/><path class="cls-22" d="M101.51,381.92s-1.06-.14-2.11-.33-2.11-.45-2.11-.45l.7-1.08,3.16-.71s.07.65.13,1.27a6.66,6.66,0,0,0,.17.89C101.49,381.75,101.51,381.92,101.51,381.92Z"/><path class="cls-22" d="M104.23,353.26s-.27.72-.66,1.83a40.42,40.42,0,0,0-1.19,4.13c-.17.76-.24,1.55-.38,2.27a10.06,10.06,0,0,0-.23,2c-.07,1.2-.11,2-.11,2l-7.27-.2s0-1,.11-2.41a22.36,22.36,0,0,1,.29-2.43c.16-.86.26-1.82.47-2.73a36.15,36.15,0,0,1,1.44-5c.51-1.36.83-2.26.83-2.26l1.46.63s-.43,1.6-.88,3.16c-.23.82-.3,1.62-.42,2.24s-.17,1-.17,1l3.24.79.28-.91c.21-.64.45-1.28.72-1.9.6-1.32,1.21-2.71,1.21-2.71Z"/><polygon class="cls-22" points="103.25 354.09 102.77 355.44 97.47 353.62 98.02 352.09 103.25 354.09"/><path class="cls-22" d="M92.14,363.32v-.7a11,11,0,0,1,.14-1.51c.18-1.1.35-2.19.35-2.19l1.73.17c.36.06.65-.29.91-.83a12.84,12.84,0,0,0,.8-2c.24-.7.42-1.42.58-1.94l.27-.89a2,2,0,0,0-.07.42,3.75,3.75,0,0,0-.16,1.1c-.11.9-.24,2.12-.38,3.33a26,26,0,0,0,0,3.31,9.55,9.55,0,0,0,0,1.07,1.2,1.2,0,0,0,.06.41s-.38.52-.76,1.06l-.76,1.1L94,363.75Z"/><path class="cls-32" d="M98.71,358.49a3.16,3.16,0,0,1,2.61,3.3,2.4,2.4,0,0,1-.42,1,2.51,2.51,0,0,1-.7.82,3.31,3.31,0,0,1-2.23.67,3,3,0,0,1-2.15-1,2.59,2.59,0,0,1-.66-2.3,2.88,2.88,0,0,1,3.17-2.55A2.32,2.32,0,0,1,98.71,358.49Z"/><path class="cls-22" d="M98.23,367.23l-.6-.34c-.37-.23-.83-.51-1.26-.82-.86-.58-1.72-1.25-1.72-1.25l1-.69,3.2.59s-.2.62-.37,1.24a3.78,3.78,0,0,0-.23.86A1.91,1.91,0,0,0,98.23,367.23Z"/><path class="cls-22" d="M111.48,342.42s-.54.57-1.32,1.46a37.36,37.36,0,0,0-2.66,3.36c-.45.67-.81,1.35-1.21,2-.18.31-.38.59-.56.88a5.79,5.79,0,0,0-.39.86c-.52,1-.86,1.78-.86,1.78l-6.67-2.95,1-2.15a10.57,10.57,0,0,1,.52-1c.19-.36.42-.72.66-1.1.46-.76.92-1.58,1.46-2.4a42.27,42.27,0,0,1,3.21-4.1l1.6-1.76,1.14,1.12-2,2.63c-.49.63-.89,1.36-1.22,1.87s-.55.89-.55.89l2.73,1.92s.25-.27.6-.71a17,17,0,0,1,1.35-1.51l2.15-2Z"/><polygon class="cls-22" points="110.24 342.81 109.3 343.87 105.04 340.22 106.14 338.99 110.24 342.81"/><path class="cls-22" d="M96.49,347.15s.13-.22.3-.59a11.84,11.84,0,0,1,.69-1.38l1.13-1.88c.59.32,1.15.61,1.55.81,1.15.58,4.37-4.33,4.48-4.23a2.54,2.54,0,0,0-.23.34,5.45,5.45,0,0,0-.56,1c-.45.8-1,1.86-1.59,2.95a24.6,24.6,0,0,0-1.27,3.06,6,6,0,0,0-.37,1c0,.13-.08.27-.11.4s-.56.32-1.11.67l-1.12.72L98,348.28Z"/><path class="cls-32" d="M104.37,345.17a3.16,3.16,0,0,1,1.18,4,3,3,0,0,1-1.7,1.27,3.44,3.44,0,0,1-2.34-.24,3,3,0,0,1-1.58-1.74,2.71,2.71,0,0,1,.23-2.38,2.92,2.92,0,0,1,4-1.05Z"/><path class="cls-22" d="M100.65,353.07s-.66-.84-1.29-1.74a11.68,11.68,0,0,1-.8-1.26l-.36-.56,1.26-.24,2.72,1.75s-.41.49-.81,1Z"/><path class="cls-22" d="M122.81,334.85l-.48.18c-.32.14-.76.37-1.28.61s-1.15.55-1.81.9-1.29.79-1.95,1.2a17.62,17.62,0,0,0-1.88,1.32c-.58.45-1.14.82-1.59,1.21l-1.45,1.32-5-5.33s.69-.65,1.75-1.61c.54-.45,1.21-.93,1.94-1.48a17.31,17.31,0,0,1,2.29-1.59c.8-.5,1.62-1,2.38-1.44s1.54-.78,2.17-1.1l1.56-.75c.39-.15.6-.21.6-.21l.61,1.47a1.12,1.12,0,0,0-.25.11,3.21,3.21,0,0,0-.66.35c-.55.33-1.25.73-2,1.14l-1,.62-.86.62c-.49.36-.81.62-.81.62l1.74,2.84s.34-.17.83-.44c.22-.13.52-.25.84-.44a7.66,7.66,0,0,1,1-.39c.69-.27,1.36-.54,1.88-.73a2.8,2.8,0,0,1,.63-.23,1.09,1.09,0,0,1,.24-.07Z"/><polygon class="cls-22" points="121.53 334.69 120.27 335.33 117.77 330.28 119.26 329.57 121.53 334.69"/><path class="cls-22" d="M107.16,333.28c-.07-.08,3.47-2.72,3.47-2.72.43.52.82,1,1.11,1.37.85,1,5.7-2.24,5.8-2.12l-1.28.85c-.7.59-1.62,1.35-2.58,2.13s-1.71,1.69-2.37,2.31c-.31.31-.56.59-.75.78a2.42,2.42,0,0,0-.25.31l-1.28.19c-.63.13-1.3.24-1.3.24l.43-1.67Z"/><path class="cls-32" d="M115.23,334.59a3.63,3.63,0,0,1,.52,2.27,2.75,2.75,0,0,1-1,1.89,3.2,3.2,0,0,1-4.12-.63,2.92,2.92,0,0,1,.11-4.11,2.75,2.75,0,0,1,.26-.22,3,3,0,0,1,2.28-.59A3.29,3.29,0,0,1,115.23,334.59Z"/><path class="cls-22" d="M108.68,340.37s-.05-.25-.17-.67a12.18,12.18,0,0,1-.29-1.44c-.2-1-.38-2.12-.38-2.12l1.25.24,1.84,2.71s-.58.28-1.14.61A7.79,7.79,0,0,0,108.68,340.37Z"/><path class="cls-22" d="M135.56,332.34l-1.95.11c-.59.07-1.27,0-2,.14l-2.26.35a21.17,21.17,0,0,0-2.23.51c-.72.21-1.39.33-1.94.54-1.09.41-1.82.66-1.82.66l-2.62-6.82L123,327c.66-.26,1.48-.41,2.35-.65a22.6,22.6,0,0,1,2.71-.61c.94-.15,1.88-.28,2.77-.45a20.13,20.13,0,0,1,2.41-.17c1.42-.05,2.36-.11,2.36-.11v1.59s-1.62.23-3.26.44c-.81.09-1.6.33-2.19.44l-1,.25.55,3.29.93-.06a14.81,14.81,0,0,1,2-.11l2.95.08Z"/><polygon class="cls-22" points="134.42 331.76 133 331.83 132.58 326.22 134.24 326.14 134.42 331.76"/><path class="cls-22" d="M121.64,325a17,17,0,0,1,2.1-.65l2.14-.55c.2.65.38,1.26.52,1.68s.52.45,1.13.54a14.44,14.44,0,0,0,2.08,0c.75-.06,1.47-.21,2-.23a8.92,8.92,0,0,0,.92-.08,2.7,2.7,0,0,0-.39.08,8.15,8.15,0,0,0-1.09.24c-.89.28-2,.64-3.21,1a31,31,0,0,0-3.06,1.26c-.34.13-.68.28-1,.44s-.37.18-.37.18-.64-.16-1.26-.28-1.29-.28-1.29-.28l1-1.4Z"/><path class="cls-32" d="M128.62,329.24a3.47,3.47,0,0,1-.4,2.32,2.67,2.67,0,0,1-1.62,1.36,3.2,3.2,0,0,1-3.58-2.16,2.89,2.89,0,0,1,1.66-3.75l.34-.11a3.06,3.06,0,0,1,2.33.32A3.16,3.16,0,0,1,128.62,329.24Z"/><path class="cls-22" d="M120.38,332.14a5.06,5.06,0,0,0,.1-.68,14.2,14.2,0,0,1,.26-1.45c.19-1,.47-2.1.47-2.1l1.07.68.67,3.18-1.28.16A9.37,9.37,0,0,0,120.38,332.14Z"/><polygon class="cls-29" points="261.58 349.38 311.66 349.38 318.43 366.78 261.58 367.28 261.58 349.38"/><polygon class="cls-29" points="210.96 349.38 210.96 367.76 172.27 368.1 171.83 349.38 210.96 349.38"/><polygon class="cls-29" points="213.82 349.38 257.02 349.38 257.02 367.35 213.82 367.72 213.82 349.38"/><polygon class="cls-22" points="261.58 350.52 311.66 350.52 318.43 367.93 261.58 368.45 261.58 350.52"/><polygon class="cls-22" points="210.96 350.52 210.96 368.9 172.27 369.24 171.83 350.52 210.96 350.52"/><polygon class="cls-22" points="213.82 350.52 257.02 350.52 257.02 368.48 213.82 368.88 213.82 350.52"/><path class="cls-29" d="M366.15,361.91H169.78s.41,7-2,12.17H312.53v15.77s.07,1,3.19,3.26h34.63l8.82-5.54Z"/><path class="cls-33" d="M366.15,364.54H169.78s.41,7-2,12.16H312.53v15.76s.07,1,3.19,3.26h34.63l8.82-5.53Z"/><polygon class="cls-27" points="357.71 388.5 363.24 365.66 172.27 365.66 172.27 369.24 356.06 369.24 350.35 393.11 357.71 388.5"/><path class="cls-28" d="M295.43,384.38a2.3,2.3,0,1,0,2.3-2.3,2.3,2.3,0,0,0-2.3,2.3Z"/><path class="cls-28" d="M266.88,384.38a2.32,2.32,0,1,0,2.32-2.32h0A2.34,2.34,0,0,0,266.88,384.38Z"/><ellipse class="cls-28" cx="241.42" cy="384.38" rx="2.32" ry="2.33"/><path class="cls-28" d="M210.69,384.38a2.32,2.32,0,0,0,4.63.31,1.61,1.61,0,0,0,0-.31,2.32,2.32,0,0,0-4.63-.3A1.5,1.5,0,0,0,210.69,384.38Z"/><path class="cls-28" d="M182.21,384.38a2.31,2.31,0,1,0,2.3-2.32A2.34,2.34,0,0,0,182.21,384.38Z"/><path class="cls-28" d="M306.13,358.35a2.3,2.3,0,1,0,2.3-2.3A2.3,2.3,0,0,0,306.13,358.35Z"/><path class="cls-28" d="M264.74,358.35a2.3,2.3,0,1,0,0-.06Z"/><path class="cls-28" d="M249.08,358.35a2.31,2.31,0,1,0,2.31-2.31,2.31,2.31,0,0,0-2.31,2.31Z"/><path class="cls-28" d="M217.05,358.35a2.31,2.31,0,1,0,0-.3A1.5,1.5,0,0,0,217.05,358.35Z"/><path class="cls-28" d="M173.94,358.35a2.31,2.31,0,1,0,0-.05Z"/><path class="cls-28" d="M205.17,358.35a2.31,2.31,0,1,0,0-.05Z"/><path class="cls-34" d="M301.72,186.53c1,0,1.73-1.13,1.73-2.56s-.76-2.56-1.73-2.56S300,182.57,300,184,300.79,186.53,301.72,186.53Z"/><path class="cls-35" d="M314.12,229.57c0-1.78-.49-21.51-.49-24.75,0-4.22-.58-6.55-3.07-6.63-2.94-.09-4.08.85-4.08,8.09v22.16c0,2.84.92,5.7,3.59,5.7S314.12,233.76,314.12,229.57Z"/><path class="cls-36" d="M310.07,234.14a4.48,4.48,0,0,0,3-.69,7.92,7.92,0,0,1-2,.17c-2.67,0-3.58-2.8-3.58-5.56V206.39c0-7.09,1.13-8,4.08-7.92h.25a2.72,2.72,0,0,0-1.25-.31c-2.94-.09-4.08.85-4.08,8.09v22.16C306.48,231.28,307.4,234.14,310.07,234.14Z"/><path class="cls-22" d="M300.64,184c0-1.17.6-2.16,1.36-2.16s1.35,1,1.35,2.16-.61,2.14-1.35,2.14S300.64,185.16,300.64,184Z"/><path class="cls-35" d="M300.72,184c0-1.1.56-2,1.28-2s1.25.89,1.25,2-.56,2-1.25,2S300.72,185.08,300.72,184Z"/><path class="cls-37" d="M302.18,185.4c.48,0,.86-.56.86-1.28s-.38-1.24-.86-1.24-.84.55-.84,1.24S301.7,185.4,302.18,185.4Z"/><path class="cls-37" d="M312.07,210c.46,0,.84-.58.84-1.27s-.38-1.27-.84-1.27-.86.55-.86,1.27S311.59,210,312.07,210Z"/><path class="cls-38" d="M302.6,183.19h9.31a5.35,5.35,0,0,1,4,1.3c1.26,1.28,1.24,3.06,1.22,4.64v.53c0,1,.05,2.74.07,4.72.06,2.78.09,6.25.09,9.17,0,4.73-3.16,6-4.83,6h0a1,1,0,0,1,0-2c.31,0,2.92-.24,2.92-4.07,0-2.92,0-6.38-.08-9.12,0-2-.06-3.73-.06-4.77V189c0-1.31,0-2.55-.63-3.2a3.56,3.56,0,0,0-2.63-.75H302.6a1,1,0,0,1,0-2Z"/><path class="cls-9" d="M301.94,184.91a1,1,0,0,0,.66.25h9.31a6.17,6.17,0,0,1,1.42.15,2.21,2.21,0,0,1,1.21.6c.66.65.66,1.89.63,3.2v.59c0,1,0,2.76.06,4.77,0,2.74.08,6.2.08,9.12,0,3.83-2.61,4.06-2.92,4.07a1,1,0,0,0-.73,1.6h0c1.67,0,4.86-1.29,4.86-6,0-2.91-.07-6.34-.11-9.13v-5.19c0-1.59,0-3.35-1.21-4.61a3.47,3.47,0,0,0-1.24-.83,7.5,7.5,0,0,0-2-.24H302.6a1,1,0,0,0-1,1A1,1,0,0,0,301.94,184.91Z"/><path class="cls-37" d="M301.94,184.91a1,1,0,0,0,.66.25h9.31a6.17,6.17,0,0,1,1.42.15,2.21,2.21,0,0,1,1.21.6c.66.65.66,1.89.63,3.2v.59c0,1,0,2.76.06,4.77,0,2.74.08,6.2.08,9.12s-1.54,3.75-2.4,4c.7-.07,2.72-.66,2.72-4,0-2.92-.05-6.36-.09-9.15,0-2-.05-3.7-.05-4.74v-.54c0-1.29,0-2.53-.64-3.22a2.73,2.73,0,0,0-1.21-.58,6.42,6.42,0,0,0-1.45-.13h-9.26C302.25,185.12,301.76,184.7,301.94,184.91Z"/><path class="cls-37" d="M301.94,184.91a1,1,0,0,0,.66.25h9.31a6.17,6.17,0,0,1,1.42.15,4.81,4.81,0,0,0-2.18-.4Z"/><path class="cls-37" d="M313.05,210.45l.28,19.32s.21,3.32-2.12,3.15c0,0,1.49-.66,1.42-3.8s0-18.67,0-18.67Z"/><rect class="cls-39" x="16" y="385.17" width="704.28" height="163.3"/></g></g><path class="cls-18" d="M219.85,171.06s-8.77-1.29-12.29,1.38-3.4,5.33-3.4,5.33,7.61,1.45,12.25-.16a12.09,12.09,0,0,1,.89-2.87,10,10,0,0,1,1.15-2C219,172.06,219.36,171.6,219.85,171.06Z"/><rect class="cls-40" x="401.27" y="131.73" width="23.38" height="29.96"/><polyline class="cls-22" points="305.44 317.45 317.28 301.34 317.29 296.52 203.98 296.59 201.58 317.45"/><polygon points="317.3 296.75 317.3 295.45 203.97 295.52 203.83 296.84 317.3 296.75"/><path class="cls-41" d="M303.07,289.52l2-7.37a.55.55,0,0,1,.53-.41l6.92.06a.39.39,0,0,1,.4.39v7.47a.4.4,0,0,1-.4.39l-9,0A.39.39,0,0,1,303.07,289.52Z"/><path d="M305.92,283.29l-1.23,5.21a.43.43,0,0,0,.38.54h2.65a.49.49,0,0,0,.46-.52V283.4a.47.47,0,0,0-.44-.49h-1.37A.47.47,0,0,0,305.92,283.29Z"/><path d="M311.81,288.62a.4.4,0,0,1-.4.42l-1.72,0a.5.5,0,0,1-.49-.51v-5.12a.48.48,0,0,1,.47-.5h1.7a.45.45,0,0,1,.44.46Z"/><path class="cls-2" d="M376.75,41.47s.95-4.06,4.73-4.89c4.38-1,55.17-11.73,72.46-12.38,1.87-.07,3.7.93,6.12,4.28,0,0,15.71,7.58,4.93,21.12-.47.59-1,1.19-1.57,1.81,0,0-10.39,7.8-19-2.45l-18,3.21-.16,32.41L371.39,66.24Z"/><path class="cls-42" d="M212.32,283.37l2.15-21a2.62,2.62,0,0,1,3.79-2.07l13.08,6.62a4.49,4.49,0,0,1,2.44,4.5l-1.43,13.06a3,3,0,0,1-2.95,2.63L215.58,287A3.3,3.3,0,0,1,212.32,283.37Z"/><circle class="cls-2" cx="217.27" cy="274.52" r="1.2"/><line class="cls-43" x1="370.49" y1="220.33" x2="380.96" y2="52.33"/><line class="cls-44" x1="263.39" y1="263.93" x2="263.39" y2="253.38"/><rect x="262.71" y="251.96" width="1.39" height="1.45"/><rect x="262.7" y="263.9" width="1.39" height="1.45"/><polygon class="cls-45" points="209.07 245.93 276.98 295.46 283.88 295.45 209.99 236.97 209.07 245.93"/><path class="cls-45" d="M228.17,267.23l3,1.74a1.15,1.15,0,0,1,.58,1v1.9a.67.67,0,0,1-1.23.37l-3-4.35A.46.46,0,0,1,228.17,267.23Z"/><line class="cls-44" x1="263.4" y1="204.23" x2="263.4" y2="193.68"/><rect x="262.71" y="192.26" width="1.39" height="1.45"/><rect x="262.7" y="204.2" width="1.39" height="1.45"/><polygon points="210.29 236.99 209.55 236.99 200.68 317.46 201.79 317.45 210.29 236.99"/><polyline class="cls-20" points="209.55 236.99 194.61 236.61 186.64 296.14 133.01 296.14 129.11 314.19 201.04 314.19"/><polygon class="cls-45" points="208.57 245.85 193.37 245.85 194.61 236.61 209.55 236.99 208.57 245.85"/><polygon class="cls-33" points="203.49 301.34 201.79 317.45 305.44 317.45 317.28 301.34 203.49 301.34"/><path class="cls-20" d="M194.36,236.58l-8.13,59.09-37.87,0,7.58-45.32a17.16,17.16,0,0,1,17.3-14.25Z"/><polyline class="cls-46" points="133.01 295.9 186.45 295.9 194.36 236.58"/><path class="cls-45" d="M192.88,245.82l-35.21-.19,15.25-9.55,21.2.47Z"/><path class="cls-45" d="M172.9,236.08s-12,.21-15.23,9.55"/><polygon class="cls-47" points="158.21 269.62 182.53 269.62 185.61 250.42 162 250.42 158.21 269.62"/><line class="cls-48" x1="158.37" y1="268.9" x2="182.57" y2="268.9"/><line class="cls-48" x1="158.74" y1="267.12" x2="182.89" y2="267.12"/><line class="cls-48" x1="159.12" y1="265.23" x2="183.2" y2="265.23"/><line class="cls-48" x1="159.46" y1="263.61" x2="183.42" y2="263.61"/><line class="cls-48" x1="159.82" y1="261.83" x2="183.72" y2="261.83"/><line class="cls-48" x1="160.16" y1="259.94" x2="184" y2="259.94"/><line class="cls-48" x1="160.48" y1="258.37" x2="184.31" y2="258.37"/><line class="cls-48" x1="160.83" y1="256.59" x2="184.54" y2="256.59"/><line class="cls-48" x1="161.21" y1="254.7" x2="184.85" y2="254.7"/><line class="cls-48" x1="161.59" y1="252.81" x2="185.19" y2="252.81"/><line class="cls-48" x1="161.94" y1="250.92" x2="185.5" y2="250.92"/><polygon class="cls-47" points="154.15 291.12 178.47 291.12 181.55 271.92 157.93 271.92 154.15 291.12"/><line class="cls-48" x1="154.31" y1="290.4" x2="178.51" y2="290.4"/><line class="cls-48" x1="154.68" y1="288.62" x2="178.82" y2="288.62"/><line class="cls-48" x1="155.05" y1="286.73" x2="179.14" y2="286.73"/><line class="cls-48" x1="155.4" y1="285.11" x2="179.36" y2="285.11"/><line class="cls-48" x1="155.76" y1="283.34" x2="179.65" y2="283.34"/><line class="cls-48" x1="156.09" y1="281.44" x2="179.94" y2="281.44"/><line class="cls-48" x1="156.42" y1="279.87" x2="180.24" y2="279.87"/><line class="cls-48" x1="156.76" y1="278.1" x2="180.48" y2="278.1"/><line class="cls-48" x1="157.14" y1="276.2" x2="180.79" y2="276.2"/><line class="cls-48" x1="157.53" y1="274.31" x2="181.12" y2="274.31"/><line class="cls-48" x1="157.88" y1="272.42" x2="181.44" y2="272.42"/><circle class="cls-49" cx="156.86" cy="304.88" r="3.63"/><circle class="cls-49" cx="141.58" cy="304.88" r="3.63"/><path class="cls-50" d="M133,295.65v-14a2.89,2.89,0,0,1,2.62-2.88l15.81-1.55-3.09,18.45Z"/><rect class="cls-51" x="227.47" y="304.88" width="40.28" height="8.69" rx="1.71"/><line class="cls-43" x1="339.31" y1="220.33" x2="379.8" y2="53.4"/><circle class="cls-52" cx="263.14" cy="309.64" r="1.23"/><rect class="cls-19" x="317.34" y="279.87" width="18.07" height="16.97"/><rect class="cls-53" x="317.34" y="279.87" width="18.07" height="3.01"/><rect class="cls-53" x="317.34" y="293.83" width="18.07" height="3.01"/><circle class="cls-54" cx="354.57" cy="226.72" r="19.13"/><path class="cls-55" d="M328.43,279.87v-3.31l11.86-9.07h26.48v27a5.7,5.7,0,0,1-5.7,5.7H341.9V284.69a4.8,4.8,0,0,0-4.93-4.81Z"/><polygon class="cls-56" points="426.58 314.21 399.33 314.21 399.33 161.71 425.44 161.71 426.58 314.21"/><polygon class="cls-2" points="463.42 51.41 464.45 75.14 460.1 74.91 459.29 53.02 463.42 51.41"/><path class="cls-57" d="M330.13,278.76v-1.6L341.54,268l23.74,0v25.62a4.86,4.86,0,0,1-4.73,5l-17.15.05v-15.6a4.07,4.07,0,0,0-4.09-4.19Z"/><path class="cls-20" d="M389.47,273.56s11.46,1.65,10.09-11.23V206.74h-19.3a5.61,5.61,0,0,0-5.61,5.61v12.13L342.2,256.9a9.78,9.78,0,0,0,6.92,16.7Z"/><rect class="cls-20" x="332.68" y="296.15" width="15.16" height="1.5"/><rect class="cls-58" x="332.86" y="297.65" width="14.82" height="3.59"/><rect class="cls-20" x="332.68" y="301.24" width="15.16" height="1.5"/><rect class="cls-59" x="332.68" y="297.65" width="5.08" height="3.59"/><rect class="cls-60" x="331.46" y="297.38" width="1.22" height="4.13"/><rect class="cls-61" x="317.28" y="298.08" width="14.18" height="2.64"/><circle class="cls-62" cx="349.44" cy="264.18" r="5.83"/><polygon class="cls-63" points="352.04 259.88 346.97 259.88 344.44 264.26 346.97 268.65 352.04 268.65 354.57 264.26 352.04 259.88"/><polygon class="cls-64" points="351.47 260.75 347.42 260.75 345.39 264.26 347.42 267.77 351.47 267.77 353.5 264.26 351.47 260.75"/><circle class="cls-65" cx="349.62" cy="264.26" r="1.63"/><circle class="cls-66" cx="349.62" cy="264.26" r="0.72"/><path class="cls-30" d="M343.17,255.92l-7.77-18.55a4.5,4.5,0,0,1,2.24-5.88L358.22,223a6,6,0,0,1,2.91-.42l13.52,1.27v.61l-2,2Z"/><circle class="cls-60" cx="354.85" cy="224.38" r="7.71"/><circle class="cls-59" cx="354.74" cy="218.66" r="0.99"/><circle class="cls-59" cx="360.47" cy="223.09" r="0.99"/><circle class="cls-59" cx="349.22" cy="223.74" r="0.99"/><circle class="cls-59" cx="353.75" cy="229.91" r="0.99"/><circle class="cls-59" cx="351.98" cy="219.25" r="0.99"/><circle class="cls-59" cx="359.31" cy="220.83" r="0.99"/><circle class="cls-59" cx="349.47" cy="226.36" r="0.99"/><circle class="cls-59" cx="356.58" cy="229.72" r="0.99"/><circle class="cls-59" cx="349.99" cy="221.11" r="0.99"/><circle class="cls-59" cx="357.32" cy="219.25" r="0.99"/><circle class="cls-59" cx="351.21" cy="228.54" r="0.99"/><circle class="cls-59" cx="358.89" cy="228.13" r="0.99"/><circle class="cls-59" cx="360.31" cy="225.73" r="0.99"/><polyline class="cls-67" points="399.33 314.19 399.33 161.69 425.44 161.69"/><rect class="cls-30" x="397.71" y="161.69" width="30.5" height="12.26"/><polyline class="cls-63" points="406.49 167.82 404.79 164.87 401.38 164.87 399.68 167.82 401.38 170.77 404.79 170.77"/><polygon class="cls-64" points="404.41 165.46 401.68 165.46 400.32 167.82 401.68 170.18 404.41 170.18 405.77 167.82 404.41 165.46"/><circle class="cls-65" cx="403.16" cy="167.82" r="1.1"/><polyline class="cls-63" points="426.17 167.82 424.46 164.87 421.05 164.87 419.35 167.82 421.05 170.77 424.46 170.77"/><polygon class="cls-64" points="424.08 165.46 421.35 165.46 419.99 167.82 421.35 170.18 424.08 170.18 425.44 167.82 424.08 165.46"/><circle class="cls-65" cx="422.83" cy="167.82" r="1.1"/><line class="cls-68" x1="464.74" y1="131.46" x2="461.01" y2="38"/><rect class="cls-69" x="402.06" y="173.95" width="2.66" height="140.25"/><rect class="cls-69" x="421.39" y="173.95" width="2.66" height="140.25"/><rect class="cls-30" x="409.44" y="242.16" width="7.03" height="62.3"/><circle class="cls-30" cx="412.96" cy="183.09" r="4.76"/><rect class="cls-70" x="411.07" y="183.09" width="3.78" height="59.07"/><circle class="cls-62" cx="391.4" cy="214.99" r="5.83"/><polygon class="cls-63" points="393.99 210.69 388.93 210.69 386.39 215.08 388.93 219.47 393.99 219.47 396.53 215.08 393.99 210.69"/><polygon class="cls-64" points="393.43 211.57 389.37 211.57 387.35 215.08 389.37 218.59 393.43 218.59 395.45 215.08 393.43 211.57"/><circle class="cls-65" cx="391.58" cy="215.08" r="1.63"/><circle class="cls-66" cx="391.58" cy="215.08" r="0.72"/><polygon class="cls-71" points="401.27 161.69 401.27 131.73 424.65 131.73 416.03 161.63 401.27 161.69"/><rect class="cls-69" x="403.2" y="131.73" width="2.66" height="29.96"/><rect class="cls-69" x="419.8" y="131.73" width="2.66" height="29.96"/><rect class="cls-30" x="400.04" y="121.33" width="25.83" height="10.38"/><rect class="cls-40" x="402.89" y="49.74" width="20.14" height="71.59"/><rect class="cls-69" x="404.72" y="49.74" width="2.29" height="71.59"/><rect class="cls-69" x="419.01" y="49.74" width="2.29" height="71.59"/><polyline class="cls-63" points="424.39 126.27 422.85 123.6 419.76 123.6 418.22 126.27 419.76 128.94 422.85 128.94"/><polyline class="cls-63" points="407.8 126.24 406.26 123.57 403.18 123.57 401.63 126.24 403.18 128.91 406.26 128.91"/><polygon class="cls-64" points="405.87 124.24 403.56 124.24 402.41 126.24 403.56 128.24 405.87 128.24 407.03 126.24 405.87 124.24"/><circle class="cls-65" cx="404.82" cy="126.24" r="0.93"/><polygon class="cls-64" points="422.46 124.27 420.15 124.27 418.99 126.27 420.15 128.27 422.46 128.27 423.61 126.27 422.46 124.27"/><circle class="cls-65" cx="421.4" cy="126.27" r="0.93"/><rect class="cls-29" x="373.52" y="223.96" width="3.08" height="38.67"/><rect class="cls-52" x="372.15" y="223.96" width="1.37" height="38.67"/><rect class="cls-52" x="376.59" y="223.96" width="1.37" height="38.67"/><rect class="cls-65" x="368.39" y="262.71" width="13.85" height="10.85"/><path class="cls-72" d="M374.91,264.85l-3.36,5.82a.47.47,0,0,0,.41.71h6.73a.47.47,0,0,0,.41-.71l-3.37-5.82A.47.47,0,0,0,374.91,264.85Z"/><circle class="cls-73" cx="454.93" cy="40.89" r="9.88"/><circle class="cls-73" cx="387.99" cy="50.77" r="9.88"/><path class="cls-74" d="M457.52,44.25,387.31,56.51c-2.56-.14-4.22-1.3-4.52-3L381,43.27a3.19,3.19,0,0,1,2.59-3.69l70.21-12.26a3.19,3.19,0,0,1,3.7,2.59l1.78,10.2A4.76,4.76,0,0,1,457.52,44.25Z"/><rect class="cls-56" x="383.99" y="35.56" width="72.05" height="12.3" rx="3.19" transform="translate(-0.91 72.89) rotate(-9.91)"/><rect class="cls-75" x="450.34" y="144.85" width="27.97" height="127.79"/><polygon class="cls-65" points="450.87 237.94 450.88 227.19 477.84 227.2 477.82 229.27 450.87 237.94"/><line class="cls-76" x1="462.25" y1="145.41" x2="462.17" y2="273.17"/><line class="cls-76" x1="466.05" y1="145.38" x2="465.97" y2="273.13"/><rect class="cls-20" x="419.93" y="204.64" width="53.31" height="5.5" transform="translate(203.38 -220.75) rotate(35.49)"/><circle class="cls-62" cx="389.68" cy="47.23" r="3.82"/><polygon class="cls-63" points="391.38 44.41 388.06 44.41 386.4 47.28 388.06 50.16 391.38 50.16 393.04 47.28 391.38 44.41"/><polygon class="cls-64" points="391 44.98 388.35 44.98 387.02 47.28 388.35 49.58 391 49.58 392.33 47.28 391 44.98"/><circle class="cls-65" cx="389.79" cy="47.28" r="1.07"/><circle class="cls-66" cx="389.79" cy="47.28" r="0.47"/><circle class="cls-62" cx="449.09" cy="36.64" r="3.82"/><polygon class="cls-63" points="450.78 33.82 447.46 33.82 445.8 36.69 447.46 39.57 450.78 39.57 452.44 36.69 450.78 33.82"/><line class="cls-77" x1="430.63" y1="192.59" x2="468.35" y2="219.43"/><rect class="cls-20" x="423.37" y="202.07" width="58.59" height="5.5" transform="translate(203.02 -224.75) rotate(35.49)"/><polygon class="cls-64" points="450.41 34.39 447.76 34.39 446.43 36.69 447.76 38.99 450.41 38.99 451.74 36.69 450.41 34.39"/><circle class="cls-65" cx="449.2" cy="36.69" r="1.07"/><circle class="cls-66" cx="449.2" cy="36.69" r="0.47"/><polyline class="cls-78" points="330.1 275.28 330.1 272.61 329.2 272.61 329.2 271.53 333.33 271.53 333.33 272.61 332.45 272.61 332.45 273.49"/><rect class="cls-59" x="329.2" y="271.53" width="4.13" height="1.07"/><rect class="cls-79" x="421.13" y="180.05" width="9.69" height="48.78"/><circle class="cls-65" cx="425.93" cy="204.82" r="1.5"/><circle class="cls-65" cx="425.97" cy="225.02" r="1.5"/><path class="cls-20" d="M430.81,221.58h54.11a0,0,0,0,1,0,0v5.17a.43.43,0,0,1-.43.43H430.81a0,0,0,0,1,0,0v-5.6A0,0,0,0,1,430.81,221.58Z"/><polyline class="cls-80" points="466.29 221.58 430.81 221.58 430.81 227.18"/><line class="cls-81" x1="430.81" y1="221.58" x2="484.93" y2="221.58"/><path class="cls-20" d="M430.81,219.31h54a.16.16,0,0,1,.16.16v2.11a0,0,0,0,1,0,0H430.81a0,0,0,0,1,0,0v-2.27A0,0,0,0,1,430.81,219.31Z"/><path class="cls-80" d="M465.19,221.5l-34.44,0v-2.27l54,.06.16.15v.22Z"/><circle class="cls-65" cx="425.93" cy="184.23" r="1.5"/><line class="cls-82" x1="452.51" y1="273.63" x2="476.13" y2="273.63"/><rect class="cls-83" x="452.52" y="274.13" width="23.62" height="1.43"/><line class="cls-82" x1="453.06" y1="276.06" x2="475.55" y2="276.06"/><rect class="cls-83" x="453.07" y="276.56" width="22.49" height="1.43"/><line class="cls-82" x1="453.74" y1="278.51" x2="474.76" y2="278.51"/><rect class="cls-83" x="453.75" y="279.01" width="21.02" height="1.43"/><rect class="cls-84" x="449.58" y="167.89" width="29.53" height="2.6"/><rect class="cls-18" x="448.86" y="166.86" width="30.84" height="1"/><rect class="cls-84" x="449.61" y="191.29" width="29.53" height="2.6" transform="translate(928.76 385.18) rotate(-180)"/><rect class="cls-18" x="449" y="193.84" width="30.84" height="1" transform="translate(928.85 388.69) rotate(-180)"/><polygon class="cls-20" points="478.85 191.29 449.83 191.28 449.83 170.49 478.85 170.49 478.85 191.29"/><circle class="cls-85" cx="453.47" cy="169.24" r="0.83"/><circle class="cls-85" cx="474.2" cy="169.19" r="0.83"/><circle class="cls-85" cx="453.8" cy="192.59" r="0.83"/><circle class="cls-85" cx="474.52" cy="192.54" r="0.83"/><polygon class="cls-86" points="469.32 170.52 449.83 191.28 449.83 170.49 469.32 170.52"/><rect class="cls-84" x="449.52" y="142.69" width="29.53" height="2.6"/><rect class="cls-18" x="448.8" y="141.66" width="30.84" height="1"/><rect class="cls-87" x="450.96" y="139.77" width="26.42" height="1.87"/><rect class="cls-87" x="458.38" y="138.12" width="12.54" height="1.68"/><polygon class="cls-87" points="462.43 133.08 458.38 138.12 470.91 138.12 466.85 133.09 462.43 133.08"/><path class="cls-88" d="M466.64,133.08c-1.86-4.8-3.88,0-3.88,0Z"/><path class="cls-2" d="M464.12,133.06h1.62c-.77-1.63-1.62,0-1.62,0"/><line class="cls-5" x1="656.96" y1="377.66" x2="656.43" y2="266.48"/><text class="cls-89" transform="translate(63.29 515.8)">MAR<tspan class="cls-90" x="326.2" y="0">P</tspan><tspan x="417.2" y="0">AL</tspan></text><text class="cls-91" transform="translate(312.36 621.83)">s.<tspan class="cls-92" x="41" y="0">r</tspan><tspan x="61.5" y="0">.o.</tspan></text><path class="cls-93" d="M458.65,310.12s-47.6-6.91.18-13.83"/><path class="cls-94" d="M470.06,281.26c9.95-.24,17.84,2.11,18.2,4.2s-7.24,5.6-18.27,5.69Z"/><path class="cls-65" d="M437.84,302.53s2.12-5,27.19-7,22.65-8.59,22.65-8.59l-9.82,3.33-21.42,3.24L449,294.75l-4.59,1.4-4,1.68-2.23,1.9-1.06,1.79Z"/><path class="cls-95" d="M470,280.93s41.41,3.86.31,10.55c-9.61,1.56-33.85,3.2-32.91,11.15"/><path class="cls-95" d="M437.35,302.41s3.78-5.11,28.8-6.85c7.12-.5,19.2-2.6,22.11-9.12"/><path class="cls-95" d="M437.42,301.68s-2.58,5.24,20.67,8.77"/><polygon class="cls-96" points="469.63 291.53 458.09 293.07 458.09 280.93 469.63 280.93 469.63 291.53"/><path class="cls-94" d="M469.79,295.62c11.24.18,18.37,3.55,18.53,5.71s-7.65,6.06-18.69,6.15Z"/><polygon class="cls-97" points="462.44 366 473 352.84 451.88 352.84 462.44 366"/><path class="cls-93" d="M458.71,325.73s-46.55-6.82.12-13.63"/><path class="cls-65" d="M438,318.14s2.13-4.89,27.14-7.13c24.06-2.15,21.27-8,21.27-8l-8.4,2.77-21.42,3.25-7.41,1.29-4.59,1.4-4,1.67-2.24,1.91-1.06,1.79Z"/><path class="cls-95" d="M469.64,295.22s41.92,5.17.82,11.86c-9.61,1.57-33.84,3.21-32.9,11.15"/><path class="cls-95" d="M437.51,318s3.78-5.1,28.8-6.85c7.12-.5,19.1-2.92,22-9.44"/><path class="cls-95" d="M437.58,317.29s-2.58,5.24,20.68,8.77"/><path class="cls-94" d="M469.41,311.25c10-.25,18.37,3.46,18.72,5.55s-8.38,6-19.42,6.11Z"/><path class="cls-93" d="M458.36,341.2s-46.54-6.82.13-13.63"/><path class="cls-65" d="M438.24,333.61s2.31-4.51,27.18-7.06c23.1-2.36,22.65-8.58,22.65-8.58l-9.82,3.32-21.42,3.25-7.41,1.29-4.59,1.4-4,1.68-2.24,1.9-1.06,1.79Z"/><path class="cls-95" d="M469.41,310.87s42.38,5,1.28,11.68c-9.61,1.57-33.84,3.21-32.9,11.15"/><path class="cls-95" d="M437.74,333.48s3.78-5.1,28.8-6.85c7.12-.5,19.12-3.13,22-9.65"/><path class="cls-95" d="M437.81,332.76s-2.58,5.24,20.68,8.77"/><path class="cls-94" d="M468.71,326.73c10-.24,18.29,2.76,18.64,4.85s-7.6,6.06-18.64,6.15Z"/><path class="cls-93" d="M457.79,354.9s-46.62-6.95.47-13.9"/><path class="cls-65" d="M437.46,348.39s2.11-5,27.18-7.05,22-8.48,22-8.48l-8.56,3.07-22.06,3.39-7.41,1.29-4.59,1.4-4,1.68-2.23,1.9-1.06,1.79Z"/><path class="cls-95" d="M468.84,326.43s42.17,4.22,1.07,10.91c-9.61,1.56-33.85,3.2-32.9,11.15"/><path class="cls-95" d="M437,348.26s3.78-5.1,28.8-6.85c7.12-.49,18.75-2.36,21.66-8.88"/><path class="cls-95" d="M437,347.54s-3.08,4,20.18,7.55"/><path class="cls-94" d="M468.71,341.78c10-.24,19,2.5,19.31,4.58s-8.27,6.06-19.31,6.15Z"/><polygon class="cls-65" points="457.5 355.37 457.5 354.03 483.9 349.25 483.26 350.69 470.7 353.8 457.5 355.37"/><path class="cls-95" d="M468.94,341.35s42.64,4.25,1.63,10.77L458,353.86"/><path class="cls-95" d="M457.1,355.08c7.12-.49,26.58-1.54,31.11-7.91"/><polygon class="cls-96" points="469.35 307.25 458.92 308.57 458.83 296.29 469.64 295.22 469.35 307.25"/><polygon class="cls-96" points="469.35 322.73 458.92 324.18 458.83 311.9 469.64 310.82 469.35 322.73"/><polygon class="cls-96" points="468.41 337.55 457.98 338.99 457.79 327.5 468.6 326.45 468.41 337.55"/><polygon class="cls-96" points="468.41 352.42 457.99 354.27 457.79 342.32 468.6 341.27 468.41 352.42"/></g></g></svg>