<svg width="227" height="196" viewBox="0 0 227 196" fill="none" xmlns="http://www.w3.org/2000/svg">
<path opacity="0.02" fill-rule="evenodd" clip-rule="evenodd" d="M227 30.6117C193 47.6183 176.001 67.6008 176.001 90.5597C190.493 92.2603 202.476 98.2834 211.951 108.629C221.426 118.975 226.164 130.95 226.164 144.555C226.164 159.011 221.566 171.199 212.369 181.119C203.173 191.04 191.607 196 177.673 196C162.067 196 148.551 189.552 137.125 176.655C125.699 163.758 119.986 148.098 119.986 129.675C119.986 74.4032 150.362 31.1788 211.115 0L227 30.6117ZM107.014 30.6117C72.7361 47.6183 55.5973 67.6008 55.5973 90.5597C70.3675 92.2603 82.4901 98.2834 91.9654 108.629C101.441 118.975 106.178 130.95 106.178 144.555C106.178 159.011 101.51 171.199 92.1744 181.119C82.8385 191.04 71.2036 196 57.2694 196C41.663 196 28.2167 189.552 16.93 176.655C5.64328 163.758 0 148.098 0 129.675C0 74.4032 30.2368 31.1788 90.7113 0L107.014 30.6117Z" fill="#00002B"/>
</svg>
