<svg width="24" height="24" viewBox="0 0 24 24" fill="none" xmlns="http://www.w3.org/2000/svg">
<path d="M15.2753 4.81816L6.28468 8.08748C6.17952 8.12572 6.20696 8.28146 6.31886 8.28146H16.6512C16.7065 8.28146 16.7512 8.23669 16.7512 8.18146V5.85193C16.7512 5.08857 15.9927 4.55728 15.2753 4.81816Z" fill="#2E74FF"/>
<path fill-rule="evenodd" clip-rule="evenodd" d="M15.5305 5.52268C15.7587 5.43967 16.0001 5.60872 16.0001 5.85161V7.28125H10.6944L15.5305 5.52268ZM6.24932 7.30155L15.0179 4.11299C16.2244 3.67424 17.5001 4.56777 17.5001 5.85161V7.34306C18.7853 7.61709 19.75 8.77007 19.75 10.1508V16.4117C19.75 17.9965 18.4791 19.2812 16.9113 19.2812H6.58871C5.02093 19.2812 3.75 17.9965 3.75 16.4117V10.1508C3.75 8.6821 4.84154 7.4711 6.24932 7.30155Z" fill="white"/>
<path fill-rule="evenodd" clip-rule="evenodd" d="M6.62069 11.0312C6.27789 11.0312 6 11.367 6 11.7812C6 12.1955 6.27789 12.5312 6.62069 12.5312H17.3793C17.7221 12.5312 18 12.1955 18 11.7812C18 11.367 17.7221 11.0312 17.3793 11.0312H6.62069ZM6.75 14.5312C6.33579 14.5312 6 14.867 6 15.2812C6 15.6955 6.33579 16.0312 6.75 16.0312H10.75C11.1642 16.0312 11.5 15.6955 11.5 15.2812C11.5 14.867 11.1642 14.5312 10.75 14.5312H6.75Z" fill="#2E74FF"/>
</svg>
