<svg width="102" height="102" viewBox="0 0 102 102" fill="none" xmlns="http://www.w3.org/2000/svg">
<path fill-rule="evenodd" clip-rule="evenodd" d="M4.25 51C4.25 25.1813 25.1813 4.25 51 4.25C76.8187 4.25 97.75 25.1813 97.75 51C97.75 76.8187 76.8187 97.75 51 97.75C25.1813 97.75 4.25 76.8187 4.25 51ZM38.25 51C38.25 50.2775 38.2925 49.572 38.3818 48.875H51C52.1272 48.875 53.2082 48.4272 54.0052 47.6302C54.8022 46.8332 55.25 45.7522 55.25 44.625C55.25 43.4978 54.8022 42.4168 54.0052 41.6198C53.2082 40.8228 52.1272 40.375 51 40.375H41.9772C43.5688 38.3838 45.5884 36.7767 47.8862 35.673C50.184 34.5694 52.7009 33.9975 55.25 34C59.0835 34 62.6067 35.2623 65.45 37.4C66.3517 38.0763 67.4852 38.3667 68.601 38.2073C69.7169 38.0479 70.7237 37.4517 71.4 36.55C72.0763 35.6483 72.3667 34.5148 72.2073 33.399C72.0479 32.2831 71.4517 31.2763 70.55 30.6C67.5032 28.3139 63.983 26.7393 60.2479 25.9919C56.5128 25.2444 52.6578 25.3431 48.9658 26.2807C45.2739 27.2182 41.8388 28.9708 38.913 31.4098C35.9871 33.8488 33.6447 36.9122 32.0578 40.375H29.75C28.6228 40.375 27.5418 40.8228 26.7448 41.6198C25.9478 42.4168 25.5 43.4978 25.5 44.625C25.5 45.7522 25.9478 46.8332 26.7448 47.6302C27.5418 48.4272 28.6228 48.875 29.75 48.875H29.835C29.7183 50.2893 29.7183 51.7107 29.835 53.125H29.75C28.6228 53.125 27.5418 53.5728 26.7448 54.3698C25.9478 55.1668 25.5 56.2478 25.5 57.375C25.5 58.5022 25.9478 59.5832 26.7448 60.3802C27.5418 61.1772 28.6228 61.625 29.75 61.625H32.062C33.6489 65.0878 35.9913 68.1512 38.9172 70.5902C41.8431 73.0292 45.2781 74.7818 48.9701 75.7193C52.662 76.6569 56.5171 76.7556 60.2521 76.0081C63.9872 75.2607 67.5074 73.6861 70.5542 71.4C71.456 70.7231 72.0519 69.7158 72.2109 68.5995C72.3699 67.4833 72.079 66.3496 71.4021 65.4479C70.7253 64.5461 69.7179 63.9502 68.6017 63.7912C67.4854 63.6322 66.3517 63.9231 65.45 64.6C62.6067 66.7377 59.0835 68 55.25 68C52.7009 68.0028 50.1838 67.4311 47.886 66.3274C45.5882 65.2237 43.5686 63.6165 41.9772 61.625H51C52.1272 61.625 53.2082 61.1772 54.0052 60.3802C54.8022 59.5832 55.25 58.5022 55.25 57.375C55.25 56.2478 54.8022 55.1668 54.0052 54.3698C53.2082 53.5728 52.1272 53.125 51 53.125H38.3818C38.2939 52.4201 38.2499 51.7104 38.25 51V51Z" fill="#2E74FF"/>
</svg>
