<svg width="24" height="25" viewBox="0 0 24 25" fill="none" xmlns="http://www.w3.org/2000/svg">
<path d="M19 3.16821H14.82C14.4 2.00821 13.3 1.16821 12 1.16821C10.7 1.16821 9.6 2.00821 9.18 3.16821H5C3.9 3.16821 3 4.06821 3 5.16821V19.1682C3 20.2682 3.9 21.1682 5 21.1682H19C20.1 21.1682 21 20.2682 21 19.1682V5.16821C21 4.06821 20.1 3.16821 19 3.16821ZM12 3.16821C12.55 3.16821 13 3.61821 13 4.16821C13 4.71821 12.55 5.16821 12 5.16821C11.45 5.16821 11 4.71821 11 4.16821C11 3.61821 11.45 3.16821 12 3.16821ZM14 17.1682H7V15.1682H14V17.1682ZM17 13.1682H7V11.1682H17V13.1682ZM17 9.16821H7V7.16821H17V9.16821Z" fill="white"/>
</svg>
