<svg width="24" height="24" viewBox="0 0 24 24" fill="none" xmlns="http://www.w3.org/2000/svg">
<path d="M17.218 9.81386C17.218 14.0838 13.4961 17.9932 12.3394 19.105C12.1499 19.2872 11.8513 19.2872 11.6618 19.105C10.5051 17.9932 6.7832 14.0838 6.7832 9.81386C6.7832 6.78052 9.3919 4.7583 12.0006 4.7583C14.6093 4.7583 17.218 6.78052 17.218 9.81386Z" fill="white"/>
<path fill-rule="evenodd" clip-rule="evenodd" d="M12 5.51667C9.77179 5.51667 7.56522 7.2478 7.56522 9.81389C7.56522 11.7448 8.41181 13.6456 9.44992 15.2389C10.3645 16.6427 11.3917 17.7529 12 18.3588C12.6083 17.7529 13.6355 16.6427 14.5501 15.2389C15.5882 13.6456 16.4348 11.7448 16.4348 9.81389C16.4348 7.2478 14.2282 5.51667 12 5.51667ZM6 9.81389C6 6.31331 9.01081 4 12 4C14.9892 4 18 6.31331 18 9.81389C18 12.153 16.9856 14.3418 15.8736 16.0486C14.7555 17.7648 13.4915 19.0652 12.8899 19.6434C12.3953 20.1189 11.6047 20.1189 11.1101 19.6434C10.5085 19.0652 9.24453 17.7648 8.12639 16.0486C7.01437 14.3418 6 12.153 6 9.81389Z" fill="white"/>
<path d="M13.566 10.3194C13.566 11.157 12.8652 11.8361 12.0008 11.8361C11.1363 11.8361 10.4355 11.157 10.4355 10.3194C10.4355 9.48177 11.1363 8.80273 12.0008 8.80273C12.8652 8.80273 13.566 9.48177 13.566 10.3194Z" fill="white"/>
<path fill-rule="evenodd" clip-rule="evenodd" d="M12.0002 9.5611C11.5679 9.5611 11.2176 9.90062 11.2176 10.3194C11.2176 10.7383 11.5679 11.0778 12.0002 11.0778C12.4324 11.0778 12.7828 10.7383 12.7828 10.3194C12.7828 9.90062 12.4324 9.5611 12.0002 9.5611ZM9.65234 10.3194C9.65234 9.06299 10.7035 8.04443 12.0002 8.04443C13.2968 8.04443 14.348 9.06299 14.348 10.3194C14.348 11.5759 13.2968 12.5944 12.0002 12.5944C10.7035 12.5944 9.65234 11.5759 9.65234 10.3194Z" fill="#2E74FF"/>
</svg>
