<svg width="102" height="102" viewBox="0 0 102 102" fill="none" xmlns="http://www.w3.org/2000/svg">
<path d="M47.3999 59.2061C49.5598 60.7124 52.4396 60.7124 54.5995 59.2061L98.2193 33.7913C98.4785 33.6127 98.6864 33.369 98.8224 33.0846C98.9584 32.8002 99.0177 32.4851 98.9944 32.1706C98.9711 31.8561 98.866 31.5532 98.6896 31.2921C98.5132 31.031 98.2716 30.8208 97.9889 30.6825L53.8075 13.6607C52.935 13.2261 51.974 13 50.9997 13C50.0254 13 49.0644 13.2261 48.1919 13.6607L4.01045 30.6825C3.72778 30.8208 3.4862 31.031 3.30978 31.2921C3.13336 31.5532 3.02826 31.8561 3.00495 32.1706C2.98164 32.4851 3.04094 32.8002 3.17694 33.0846C3.31294 33.369 3.52089 33.6127 3.78006 33.7913L47.3999 59.2061V59.2061ZM97.9889 55.4042L86.0568 49.4704L58.5784 65.4816C56.3274 66.9686 53.7115 67.7483 50.9997 67.7483C48.2879 67.7483 45.672 66.9638 43.4209 65.4816L15.9617 49.4608L4.01045 55.3994C3.72778 55.5377 3.4862 55.7479 3.30978 56.009C3.13336 56.2701 3.02826 56.573 3.00495 56.8875C2.98164 57.202 3.04094 57.5172 3.17694 57.8015C3.31294 58.0859 3.52089 58.3296 3.78006 58.5083L47.3999 88.8703C49.5598 90.3766 52.4396 90.3766 54.5995 88.8703L98.2193 58.5083C98.4786 58.3302 98.6867 58.087 98.8229 57.803C98.959 57.5189 99.0184 57.204 98.995 56.8898C98.9717 56.5755 98.8665 56.2729 98.69 56.0122C98.5134 55.7515 98.2717 55.5419 97.9889 55.4042V55.4042Z" fill="#2E74FF"/>
</svg>
