<svg width="102" height="102" viewBox="0 0 102 102" fill="none" xmlns="http://www.w3.org/2000/svg">
<path d="M51 8.5C28.3475 27.8375 17 44.54 17 58.65C17 79.815 33.15 93.5 51 93.5C68.85 93.5 85 79.815 85 58.65C85 44.54 73.6525 27.8375 51 8.5ZM33.2775 59.5C34.85 59.5 36.125 60.605 36.4225 62.135C38.165 71.57 46.1125 74.8 51.8925 74.3325C53.72 74.2475 55.25 75.6925 55.25 77.52C55.25 79.22 53.89 80.6225 52.19 80.7075C43.1375 81.26 32.555 76.075 30.1325 63.1975C30.0586 62.7418 30.0846 62.2756 30.2087 61.8309C30.3327 61.3863 30.5519 60.9739 30.8509 60.6223C31.15 60.2707 31.5219 59.9882 31.9409 59.7944C32.3598 59.6007 32.8159 59.5002 33.2775 59.5Z" fill="#2E74FF"/>
</svg>
