<svg width="102" height="102" viewBox="0 0 102 102" fill="none" xmlns="http://www.w3.org/2000/svg">
<path d="M93.5 68H8.5V76.5H17V93.5H85V76.5H93.5V68ZM44.37 63.75C43.3075 63.75 42.5 62.9425 42.2875 61.88L40.6725 49.13V48.875C40.6725 47.685 41.6075 46.75 42.7975 46.75H59.5C60.6475 46.92 61.455 47.9825 61.3275 49.13L59.7125 61.88C59.5 62.9425 58.6925 63.75 57.63 63.75H44.37ZM80.75 8.5L91.63 28.39C91.8 28.815 91.8425 29.2825 91.8425 29.75C91.8425 32.13 89.93 34 87.5925 34H80.75V63.75H72.25V34H55.25V42.5H46.75V34H29.75V63.75H21.25V34H15.385C14.656 34.0075 13.9375 33.827 13.2986 33.4759C12.6597 33.1248 12.1221 32.6149 11.7377 31.9955C11.3532 31.3762 11.1349 30.6681 11.1038 29.9398C11.0727 29.2115 11.2298 28.4874 11.56 27.8375L21.25 8.5H80.75Z" fill="#2E74FF"/>
</svg>
