<svg width="102" height="102" viewBox="0 0 102 102" fill="none" xmlns="http://www.w3.org/2000/svg">
<path d="M55.25 84.9999C56.3772 84.9999 57.4582 85.4477 58.2552 86.2447C59.0523 87.0418 59.5 88.1228 59.5 89.2499C59.5 90.3771 59.0523 91.4581 58.2552 92.2552C57.4582 93.0522 56.3772 93.4999 55.25 93.4999C54.1229 93.4999 53.0419 93.0522 52.2448 92.2552C51.4478 91.4581 51 90.3771 51 89.2499C51 88.1228 51.4478 87.0418 52.2448 86.2447C53.0419 85.4477 54.1229 84.9999 55.25 84.9999ZM40.375 80.7499C41.5022 80.7499 42.5832 81.1977 43.3802 81.9947C44.1773 82.7918 44.625 83.8728 44.625 84.9999C44.625 86.1271 44.1773 87.2081 43.3802 88.0052C42.5832 88.8022 41.5022 89.2499 40.375 89.2499C39.2479 89.2499 38.1669 88.8022 37.3698 88.0052C36.5728 87.2081 36.125 86.1271 36.125 84.9999C36.125 83.8728 36.5728 82.7918 37.3698 81.9947C38.1669 81.1977 39.2479 80.7499 40.375 80.7499ZM70.125 80.7499C71.2522 80.7499 72.3332 81.1977 73.1302 81.9947C73.9273 82.7918 74.375 83.8728 74.375 84.9999C74.375 86.1271 73.9273 87.2081 73.1302 88.0052C72.3332 88.8022 71.2522 89.2499 70.125 89.2499C68.9979 89.2499 67.9169 88.8022 67.1198 88.0052C66.3228 87.2081 65.875 86.1271 65.875 84.9999C65.875 83.8728 66.3228 82.7918 67.1198 81.9947C67.9169 81.1977 68.9979 80.7499 70.125 80.7499ZM55.2585 25.5382C68.7225 25.5382 76.364 34.4504 77.4733 45.2157H77.8133C79.8714 45.2129 81.9099 45.6156 83.8124 46.4008C85.7149 47.1859 87.4441 48.3382 88.9012 49.7917C90.3583 51.2453 91.5148 52.9716 92.3046 54.8722C93.0944 56.7728 93.502 58.8103 93.5043 60.8684C93.5015 62.9262 93.0934 64.9633 92.3034 66.8634C91.5133 68.7635 90.3567 70.4893 88.8997 71.9424C87.4426 73.3955 85.7137 74.5474 83.8114 75.3323C81.9092 76.1172 79.8711 76.5197 77.8133 76.5169H32.6995C30.6417 76.5197 28.6036 76.1172 26.7014 75.3323C24.7991 74.5474 23.0702 73.3955 21.6131 71.9424C20.1561 70.4893 18.9995 68.7635 18.2094 66.8634C17.4194 64.9633 17.0113 62.9262 17.0085 60.8684C17.0108 58.8103 17.4184 56.7728 18.2082 54.8722C18.998 52.9716 20.1545 51.2453 21.6116 49.7917C23.0687 48.3382 24.7979 47.1859 26.7004 46.4008C28.6029 45.6156 30.6414 45.2129 32.6995 45.2157H33.0395C34.1573 34.3782 41.7945 25.5382 55.2585 25.5382ZM18.5598 43.1969C18.8553 43.9087 18.883 44.7035 18.6376 45.434C18.3923 46.1646 17.8905 46.7816 17.2253 47.1707L16.8343 47.3619L12.8988 48.9939C12.1535 49.2977 11.3209 49.3083 10.5682 49.0236C9.81542 48.739 9.19821 48.1801 8.84045 47.4592C8.48269 46.7383 8.41086 45.9087 8.6394 45.1371C8.86793 44.3654 9.3799 43.7088 10.0725 43.299L10.4593 43.1035L14.3948 41.4715C14.7815 41.3112 15.1961 41.2288 15.6147 41.2288C16.0334 41.2288 16.4479 41.3112 16.8347 41.4715C17.2215 41.6317 17.5729 41.8666 17.8689 42.1626C18.1649 42.4587 18.3996 42.8101 18.5598 43.1969ZM46.1295 22.6567L45.4028 22.9032C37.8165 25.5807 32.385 31.4244 30.039 39.1509L29.7373 40.2134L29.4908 41.2249L28.6153 41.3907C26.0726 41.9246 23.6605 42.9558 21.5178 44.4252C19.5699 41.0772 18.8423 37.1576 19.4588 33.3335C20.0753 29.5094 21.9979 26.0171 24.8993 23.4509C27.8007 20.8847 31.5017 19.4031 35.3724 19.2583C39.2432 19.1135 43.0445 20.3144 46.1295 22.6567ZM12.4993 22.7884L12.9455 22.9372L16.881 24.5692C17.6191 24.8803 18.213 25.4579 18.5445 26.1871C18.876 26.9162 18.9209 27.7434 18.6702 28.5041C18.4195 29.2648 17.8916 29.9033 17.1915 30.2924C16.4914 30.6816 15.6705 30.7929 14.892 30.6042L14.4415 30.4597L10.506 28.8277C9.766 28.5175 9.17019 27.9396 8.83756 27.2094C8.50494 26.4791 8.45996 25.6503 8.71161 24.8884C8.96327 24.1264 9.49303 23.4874 10.1951 23.099C10.8973 22.7105 11.7201 22.6011 12.4993 22.7927V22.7884ZM28.713 10.0979L28.9043 10.4847L30.5363 14.4202C30.8444 15.1661 30.8582 16.0012 30.5747 16.7568C30.2912 17.5125 29.7317 18.1325 29.009 18.4917C28.2862 18.8509 27.4542 18.9226 26.6806 18.6922C25.9071 18.4619 25.2498 17.9467 24.8413 17.2507L24.6458 16.8597L23.0138 12.9242C22.71 12.1789 22.6994 11.3464 22.9841 10.5936C23.2688 9.84084 23.8276 9.22363 24.5485 8.86587C25.2694 8.50811 26.099 8.43629 26.8706 8.66482C27.6423 8.89335 28.299 9.40532 28.7088 10.0979H28.713ZM47.2133 8.7422C47.9189 9.03507 48.4959 9.57164 48.8391 10.2542C49.1823 10.9367 49.269 11.7199 49.0833 12.4609L48.9388 12.9072L47.3068 16.8427C46.9956 17.5808 46.418 18.1746 45.6889 18.5062C44.9598 18.8377 44.1326 18.8826 43.3718 18.6319C42.6111 18.3811 41.9727 17.8532 41.5835 17.1531C41.1944 16.4531 41.0831 15.6321 41.2718 14.8537L41.4205 14.4032L43.0483 10.4677C43.2084 10.0809 43.4432 9.72943 43.7392 9.43337C44.0352 9.13731 44.3866 8.90245 44.7734 8.74222C45.1601 8.58199 45.5747 8.49952 45.9933 8.49951C46.412 8.49951 46.8265 8.58197 47.2133 8.7422Z" fill="#2E74FF"/>
</svg>
